<?xml version="1.0" encoding="utf-8" standalone="no"?>
<!DOCTYPE svg PUBLIC "-//W3C//DTD SVG 1.1//EN"
  "http://www.w3.org/Graphics/SVG/1.1/DTD/svg11.dtd">
<!-- Created with matplotlib (https://matplotlib.org/) -->
<svg height="540pt" version="1.1" viewBox="0 0 504 540" width="504pt" xmlns="http://www.w3.org/2000/svg" xmlns:xlink="http://www.w3.org/1999/xlink">
 <defs>
  <style type="text/css">
*{stroke-linecap:butt;stroke-linejoin:round;}
  </style>
 </defs>
 <g id="figure_1">
  <g id="patch_1">
   <path d="M 0 540 
L 504 540 
L 504 0 
L 0 0 
z
" style="fill:#ffffff;"/>
  </g>
  <g id="axes_1">
   <g id="patch_2">
    <path d="M 63 480.6 
L 453.6 480.6 
L 453.6 64.8 
L 63 64.8 
z
" style="fill:#ffffff;"/>
   </g>
   <g id="patch_3">
    <path clip-path="url(#p362145a38a)" d="M 68.425 480.6 
L 70.233333 480.6 
L 70.233333 480.562688 
L 68.425 480.562688 
z
" style="fill:#1f77b4;"/>
   </g>
   <g id="patch_4">
    <path clip-path="url(#p362145a38a)" d="M 90.125 480.6 
L 91.933333 480.6 
L 91.933333 480.544432 
L 90.125 480.544432 
z
" style="fill:#1f77b4;"/>
   </g>
   <g id="patch_5">
    <path clip-path="url(#p362145a38a)" d="M 111.825 480.6 
L 113.633333 480.6 
L 113.633333 480.524188 
L 111.825 480.524188 
z
" style="fill:#1f77b4;"/>
   </g>
   <g id="patch_6">
    <path clip-path="url(#p362145a38a)" d="M 133.525 480.6 
L 135.333333 480.6 
L 135.333333 480.520279 
L 133.525 480.520279 
z
" style="fill:#1f77b4;"/>
   </g>
   <g id="patch_7">
    <path clip-path="url(#p362145a38a)" d="M 155.225 480.6 
L 157.033333 480.6 
L 157.033333 480.521907 
L 155.225 480.521907 
z
" style="fill:#1f77b4;"/>
   </g>
   <g id="patch_8">
    <path clip-path="url(#p362145a38a)" d="M 176.925 480.6 
L 178.733333 480.6 
L 178.733333 480.511104 
L 176.925 480.511104 
z
" style="fill:#1f77b4;"/>
   </g>
   <g id="patch_9">
    <path clip-path="url(#p362145a38a)" d="M 198.625 480.6 
L 200.433333 480.6 
L 200.433333 480.500154 
L 198.625 480.500154 
z
" style="fill:#1f77b4;"/>
   </g>
   <g id="patch_10">
    <path clip-path="url(#p362145a38a)" d="M 220.325 480.6 
L 222.133333 480.6 
L 222.133333 480.515495 
L 220.325 480.515495 
z
" style="fill:#1f77b4;"/>
   </g>
   <g id="patch_11">
    <path clip-path="url(#p362145a38a)" d="M 242.025 480.6 
L 243.833333 480.6 
L 243.833333 480.491271 
L 242.025 480.491271 
z
" style="fill:#1f77b4;"/>
   </g>
   <g id="patch_12">
    <path clip-path="url(#p362145a38a)" d="M 263.725 480.6 
L 265.533333 480.6 
L 265.533333 480.493237 
L 263.725 480.493237 
z
" style="fill:#1f77b4;"/>
   </g>
   <g id="patch_13">
    <path clip-path="url(#p362145a38a)" d="M 285.425 480.6 
L 287.233333 480.6 
L 287.233333 480.503271 
L 285.425 480.503271 
z
" style="fill:#1f77b4;"/>
   </g>
   <g id="patch_14">
    <path clip-path="url(#p362145a38a)" d="M 307.125 480.6 
L 308.933333 480.6 
L 308.933333 480.482947 
L 307.125 480.482947 
z
" style="fill:#1f77b4;"/>
   </g>
   <g id="patch_15">
    <path clip-path="url(#p362145a38a)" d="M 328.825 480.6 
L 330.633333 480.6 
L 330.633333 480.481325 
L 328.825 480.481325 
z
" style="fill:#1f77b4;"/>
   </g>
   <g id="patch_16">
    <path clip-path="url(#p362145a38a)" d="M 350.525 480.6 
L 352.333333 480.6 
L 352.333333 480.485469 
L 350.525 480.485469 
z
" style="fill:#1f77b4;"/>
   </g>
   <g id="patch_17">
    <path clip-path="url(#p362145a38a)" d="M 372.225 480.6 
L 374.033333 480.6 
L 374.033333 480.490324 
L 372.225 480.490324 
z
" style="fill:#1f77b4;"/>
   </g>
   <g id="patch_18">
    <path clip-path="url(#p362145a38a)" d="M 393.925 480.6 
L 395.733333 480.6 
L 395.733333 480.464855 
L 393.925 480.464855 
z
" style="fill:#1f77b4;"/>
   </g>
   <g id="patch_19">
    <path clip-path="url(#p362145a38a)" d="M 415.625 480.6 
L 417.433333 480.6 
L 417.433333 480.437178 
L 415.625 480.437178 
z
" style="fill:#1f77b4;"/>
   </g>
   <g id="patch_20">
    <path clip-path="url(#p362145a38a)" d="M 437.325 480.6 
L 439.133333 480.6 
L 439.133333 480.39414 
L 437.325 480.39414 
z
" style="fill:#1f77b4;"/>
   </g>
   <g id="patch_21">
    <path clip-path="url(#p362145a38a)" d="M 70.233333 480.6 
L 72.041667 480.6 
L 72.041667 477.711233 
L 70.233333 477.711233 
z
" style="fill:#ff7f0e;"/>
   </g>
   <g id="patch_22">
    <path clip-path="url(#p362145a38a)" d="M 91.933333 480.6 
L 93.741667 480.6 
L 93.741667 477.864946 
L 91.933333 477.864946 
z
" style="fill:#ff7f0e;"/>
   </g>
   <g id="patch_23">
    <path clip-path="url(#p362145a38a)" d="M 113.633333 480.6 
L 115.441667 480.6 
L 115.441667 478.057066 
L 113.633333 478.057066 
z
" style="fill:#ff7f0e;"/>
   </g>
   <g id="patch_24">
    <path clip-path="url(#p362145a38a)" d="M 135.333333 480.6 
L 137.141667 480.6 
L 137.141667 478.083195 
L 135.333333 478.083195 
z
" style="fill:#ff7f0e;"/>
   </g>
   <g id="patch_25">
    <path clip-path="url(#p362145a38a)" d="M 157.033333 480.6 
L 158.841667 480.6 
L 158.841667 478.142574 
L 157.033333 478.142574 
z
" style="fill:#ff7f0e;"/>
   </g>
   <g id="patch_26">
    <path clip-path="url(#p362145a38a)" d="M 178.733333 480.6 
L 180.541667 480.6 
L 180.541667 478.292836 
L 178.733333 478.292836 
z
" style="fill:#ff7f0e;"/>
   </g>
   <g id="patch_27">
    <path clip-path="url(#p362145a38a)" d="M 200.433333 480.6 
L 202.241667 480.6 
L 202.241667 478.34532 
L 200.433333 478.34532 
z
" style="fill:#ff7f0e;"/>
   </g>
   <g id="patch_28">
    <path clip-path="url(#p362145a38a)" d="M 222.133333 480.6 
L 223.941667 480.6 
L 223.941667 478.381979 
L 222.133333 478.381979 
z
" style="fill:#ff7f0e;"/>
   </g>
   <g id="patch_29">
    <path clip-path="url(#p362145a38a)" d="M 243.833333 480.6 
L 245.641667 480.6 
L 245.641667 478.539705 
L 243.833333 478.539705 
z
" style="fill:#ff7f0e;"/>
   </g>
   <g id="patch_30">
    <path clip-path="url(#p362145a38a)" d="M 265.533333 480.6 
L 267.341667 480.6 
L 267.341667 478.580222 
L 265.533333 478.580222 
z
" style="fill:#ff7f0e;"/>
   </g>
   <g id="patch_31">
    <path clip-path="url(#p362145a38a)" d="M 287.233333 480.6 
L 289.041667 480.6 
L 289.041667 478.725317 
L 287.233333 478.725317 
z
" style="fill:#ff7f0e;"/>
   </g>
   <g id="patch_32">
    <path clip-path="url(#p362145a38a)" d="M 308.933333 480.6 
L 310.741667 480.6 
L 310.741667 478.771686 
L 308.933333 478.771686 
z
" style="fill:#ff7f0e;"/>
   </g>
   <g id="patch_33">
    <path clip-path="url(#p362145a38a)" d="M 330.633333 480.6 
L 332.441667 480.6 
L 332.441667 478.785751 
L 330.633333 478.785751 
z
" style="fill:#ff7f0e;"/>
   </g>
   <g id="patch_34">
    <path clip-path="url(#p362145a38a)" d="M 352.333333 480.6 
L 354.141667 480.6 
L 354.141667 478.81711 
L 352.333333 478.81711 
z
" style="fill:#ff7f0e;"/>
   </g>
   <g id="patch_35">
    <path clip-path="url(#p362145a38a)" d="M 374.033333 480.6 
L 375.841667 480.6 
L 375.841667 478.885493 
L 374.033333 478.885493 
z
" style="fill:#ff7f0e;"/>
   </g>
   <g id="patch_36">
    <path clip-path="url(#p362145a38a)" d="M 395.733333 480.6 
L 397.541667 480.6 
L 397.541667 479.080582 
L 395.733333 479.080582 
z
" style="fill:#ff7f0e;"/>
   </g>
   <g id="patch_37">
    <path clip-path="url(#p362145a38a)" d="M 417.433333 480.6 
L 419.241667 480.6 
L 419.241667 479.328938 
L 417.433333 479.328938 
z
" style="fill:#ff7f0e;"/>
   </g>
   <g id="patch_38">
    <path clip-path="url(#p362145a38a)" d="M 439.133333 480.6 
L 440.941667 480.6 
L 440.941667 479.446252 
L 439.133333 479.446252 
z
" style="fill:#ff7f0e;"/>
   </g>
   <g id="patch_39">
    <path clip-path="url(#p362145a38a)" d="M 72.041667 480.6 
L 73.85 480.6 
L 73.85 192.154541 
L 72.041667 192.154541 
z
" style="fill:#2ca02c;"/>
   </g>
   <g id="patch_40">
    <path clip-path="url(#p362145a38a)" d="M 93.741667 480.6 
L 95.55 480.6 
L 95.55 281.745041 
L 93.741667 281.745041 
z
" style="fill:#2ca02c;"/>
   </g>
   <g id="patch_41">
    <path clip-path="url(#p362145a38a)" d="M 115.441667 480.6 
L 117.25 480.6 
L 117.25 407.669892 
L 115.441667 407.669892 
z
" style="fill:#2ca02c;"/>
   </g>
   <g id="patch_42">
    <path clip-path="url(#p362145a38a)" d="M 137.141667 480.6 
L 138.95 480.6 
L 138.95 420.517719 
L 137.141667 420.517719 
z
" style="fill:#2ca02c;"/>
   </g>
   <g id="patch_43">
    <path clip-path="url(#p362145a38a)" d="M 158.841667 480.6 
L 160.65 480.6 
L 160.65 432.42351 
L 158.841667 432.42351 
z
" style="fill:#2ca02c;"/>
   </g>
   <g id="patch_44">
    <path clip-path="url(#p362145a38a)" d="M 180.541667 480.6 
L 182.35 480.6 
L 182.35 417.782678 
L 180.541667 417.782678 
z
" style="fill:#2ca02c;"/>
   </g>
   <g id="patch_45">
    <path clip-path="url(#p362145a38a)" d="M 202.241667 480.6 
L 204.05 480.6 
L 204.05 427.821148 
L 202.241667 427.821148 
z
" style="fill:#2ca02c;"/>
   </g>
   <g id="patch_46">
    <path clip-path="url(#p362145a38a)" d="M 223.941667 480.6 
L 225.75 480.6 
L 225.75 442.929299 
L 223.941667 442.929299 
z
" style="fill:#2ca02c;"/>
   </g>
   <g id="patch_47">
    <path clip-path="url(#p362145a38a)" d="M 245.641667 480.6 
L 247.45 480.6 
L 247.45 448.69172 
L 245.641667 448.69172 
z
" style="fill:#2ca02c;"/>
   </g>
   <g id="patch_48">
    <path clip-path="url(#p362145a38a)" d="M 267.341667 480.6 
L 269.15 480.6 
L 269.15 447.247196 
L 267.341667 447.247196 
z
" style="fill:#2ca02c;"/>
   </g>
   <g id="patch_49">
    <path clip-path="url(#p362145a38a)" d="M 289.041667 480.6 
L 290.85 480.6 
L 290.85 456.615853 
L 289.041667 456.615853 
z
" style="fill:#2ca02c;"/>
   </g>
   <g id="patch_50">
    <path clip-path="url(#p362145a38a)" d="M 310.741667 480.6 
L 312.55 480.6 
L 312.55 451.120972 
L 310.741667 451.120972 
z
" style="fill:#2ca02c;"/>
   </g>
   <g id="patch_51">
    <path clip-path="url(#p362145a38a)" d="M 332.441667 480.6 
L 334.25 480.6 
L 334.25 451.598271 
L 332.441667 451.598271 
z
" style="fill:#2ca02c;"/>
   </g>
   <g id="patch_52">
    <path clip-path="url(#p362145a38a)" d="M 354.141667 480.6 
L 355.95 480.6 
L 355.95 456.090558 
L 354.141667 456.090558 
z
" style="fill:#2ca02c;"/>
   </g>
   <g id="patch_53">
    <path clip-path="url(#p362145a38a)" d="M 375.841667 480.6 
L 377.65 480.6 
L 377.65 457.699629 
L 375.841667 457.699629 
z
" style="fill:#2ca02c;"/>
   </g>
   <g id="patch_54">
    <path clip-path="url(#p362145a38a)" d="M 397.541667 480.6 
L 399.35 480.6 
L 399.35 458.441202 
L 397.541667 458.441202 
z
" style="fill:#2ca02c;"/>
   </g>
   <g id="patch_55">
    <path clip-path="url(#p362145a38a)" d="M 419.241667 480.6 
L 421.05 480.6 
L 421.05 467.688214 
L 419.241667 467.688214 
z
" style="fill:#2ca02c;"/>
   </g>
   <g id="patch_56">
    <path clip-path="url(#p362145a38a)" d="M 440.941667 480.6 
L 442.75 480.6 
L 442.75 460.528033 
L 440.941667 460.528033 
z
" style="fill:#2ca02c;"/>
   </g>
   <g id="patch_57">
    <path clip-path="url(#p362145a38a)" d="M 73.85 480.6 
L 75.658333 480.6 
L 75.658333 480.559143 
L 73.85 480.559143 
z
" style="fill:#d62728;"/>
   </g>
   <g id="patch_58">
    <path clip-path="url(#p362145a38a)" d="M 95.55 480.6 
L 97.358333 480.6 
L 97.358333 480.550281 
L 95.55 480.550281 
z
" style="fill:#d62728;"/>
   </g>
   <g id="patch_59">
    <path clip-path="url(#p362145a38a)" d="M 117.25 480.6 
L 119.058333 480.6 
L 119.058333 480.537909 
L 117.25 480.537909 
z
" style="fill:#d62728;"/>
   </g>
   <g id="patch_60">
    <path clip-path="url(#p362145a38a)" d="M 138.95 480.6 
L 140.758333 480.6 
L 140.758333 480.549373 
L 138.95 480.549373 
z
" style="fill:#d62728;"/>
   </g>
   <g id="patch_61">
    <path clip-path="url(#p362145a38a)" d="M 160.65 480.6 
L 162.458333 480.6 
L 162.458333 480.553715 
L 160.65 480.553715 
z
" style="fill:#d62728;"/>
   </g>
   <g id="patch_62">
    <path clip-path="url(#p362145a38a)" d="M 182.35 480.6 
L 184.158333 480.6 
L 184.158333 480.551986 
L 182.35 480.551986 
z
" style="fill:#d62728;"/>
   </g>
   <g id="patch_63">
    <path clip-path="url(#p362145a38a)" d="M 204.05 480.6 
L 205.858333 480.6 
L 205.858333 480.531207 
L 204.05 480.531207 
z
" style="fill:#d62728;"/>
   </g>
   <g id="patch_64">
    <path clip-path="url(#p362145a38a)" d="M 225.75 480.6 
L 227.558333 480.6 
L 227.558333 480.553997 
L 225.75 480.553997 
z
" style="fill:#d62728;"/>
   </g>
   <g id="patch_65">
    <path clip-path="url(#p362145a38a)" d="M 247.45 480.6 
L 249.258333 480.6 
L 249.258333 480.551285 
L 247.45 480.551285 
z
" style="fill:#d62728;"/>
   </g>
   <g id="patch_66">
    <path clip-path="url(#p362145a38a)" d="M 269.15 480.6 
L 270.958333 480.6 
L 270.958333 480.561492 
L 269.15 480.561492 
z
" style="fill:#d62728;"/>
   </g>
   <g id="patch_67">
    <path clip-path="url(#p362145a38a)" d="M 290.85 480.6 
L 292.658333 480.6 
L 292.658333 480.533446 
L 290.85 480.533446 
z
" style="fill:#d62728;"/>
   </g>
   <g id="patch_68">
    <path clip-path="url(#p362145a38a)" d="M 312.55 480.6 
L 314.358333 480.6 
L 314.358333 480.536683 
L 312.55 480.536683 
z
" style="fill:#d62728;"/>
   </g>
   <g id="patch_69">
    <path clip-path="url(#p362145a38a)" d="M 334.25 480.6 
L 336.058333 480.6 
L 336.058333 480.523564 
L 334.25 480.523564 
z
" style="fill:#d62728;"/>
   </g>
   <g id="patch_70">
    <path clip-path="url(#p362145a38a)" d="M 355.95 480.6 
L 357.758333 480.6 
L 357.758333 480.512642 
L 355.95 480.512642 
z
" style="fill:#d62728;"/>
   </g>
   <g id="patch_71">
    <path clip-path="url(#p362145a38a)" d="M 377.65 480.6 
L 379.458333 480.6 
L 379.458333 480.524391 
L 377.65 480.524391 
z
" style="fill:#d62728;"/>
   </g>
   <g id="patch_72">
    <path clip-path="url(#p362145a38a)" d="M 399.35 480.6 
L 401.158333 480.6 
L 401.158333 480.516896 
L 399.35 480.516896 
z
" style="fill:#d62728;"/>
   </g>
   <g id="patch_73">
    <path clip-path="url(#p362145a38a)" d="M 421.05 480.6 
L 422.858333 480.6 
L 422.858333 480.551069 
L 421.05 480.551069 
z
" style="fill:#d62728;"/>
   </g>
   <g id="patch_74">
    <path clip-path="url(#p362145a38a)" d="M 442.75 480.6 
L 444.558333 480.6 
L 444.558333 480.535472 
L 442.75 480.535472 
z
" style="fill:#d62728;"/>
   </g>
   <g id="patch_75">
    <path clip-path="url(#p362145a38a)" d="M 75.658333 480.6 
L 77.466667 480.6 
L 77.466667 477.65135 
L 75.658333 477.65135 
z
" style="fill:#9467bd;"/>
   </g>
   <g id="patch_76">
    <path clip-path="url(#p362145a38a)" d="M 97.358333 480.6 
L 99.166667 480.6 
L 99.166667 477.670581 
L 97.358333 477.670581 
z
" style="fill:#9467bd;"/>
   </g>
   <g id="patch_77">
    <path clip-path="url(#p362145a38a)" d="M 119.058333 480.6 
L 120.866667 480.6 
L 120.866667 477.760606 
L 119.058333 477.760606 
z
" style="fill:#9467bd;"/>
   </g>
   <g id="patch_78">
    <path clip-path="url(#p362145a38a)" d="M 140.758333 480.6 
L 142.566667 480.6 
L 142.566667 477.687367 
L 140.758333 477.687367 
z
" style="fill:#9467bd;"/>
   </g>
   <g id="patch_79">
    <path clip-path="url(#p362145a38a)" d="M 162.458333 480.6 
L 164.266667 480.6 
L 164.266667 477.613883 
L 162.458333 477.613883 
z
" style="fill:#9467bd;"/>
   </g>
   <g id="patch_80">
    <path clip-path="url(#p362145a38a)" d="M 184.158333 480.6 
L 185.966667 480.6 
L 185.966667 477.781481 
L 184.158333 477.781481 
z
" style="fill:#9467bd;"/>
   </g>
   <g id="patch_81">
    <path clip-path="url(#p362145a38a)" d="M 205.858333 480.6 
L 207.666667 480.6 
L 207.666667 477.867117 
L 205.858333 477.867117 
z
" style="fill:#9467bd;"/>
   </g>
   <g id="patch_82">
    <path clip-path="url(#p362145a38a)" d="M 227.558333 480.6 
L 229.366667 480.6 
L 229.366667 477.725532 
L 227.558333 477.725532 
z
" style="fill:#9467bd;"/>
   </g>
   <g id="patch_83">
    <path clip-path="url(#p362145a38a)" d="M 249.258333 480.6 
L 251.066667 480.6 
L 251.066667 477.706686 
L 249.258333 477.706686 
z
" style="fill:#9467bd;"/>
   </g>
   <g id="patch_84">
    <path clip-path="url(#p362145a38a)" d="M 270.958333 480.6 
L 272.766667 480.6 
L 272.766667 477.645244 
L 270.958333 477.645244 
z
" style="fill:#9467bd;"/>
   </g>
   <g id="patch_85">
    <path clip-path="url(#p362145a38a)" d="M 292.658333 480.6 
L 294.466667 480.6 
L 294.466667 477.926275 
L 292.658333 477.926275 
z
" style="fill:#9467bd;"/>
   </g>
   <g id="patch_86">
    <path clip-path="url(#p362145a38a)" d="M 314.358333 480.6 
L 316.166667 480.6 
L 316.166667 477.987169 
L 314.358333 477.987169 
z
" style="fill:#9467bd;"/>
   </g>
   <g id="patch_87">
    <path clip-path="url(#p362145a38a)" d="M 336.058333 480.6 
L 337.866667 480.6 
L 337.866667 478.140953 
L 336.058333 478.140953 
z
" style="fill:#9467bd;"/>
   </g>
   <g id="patch_88">
    <path clip-path="url(#p362145a38a)" d="M 357.758333 480.6 
L 359.566667 480.6 
L 359.566667 478.415293 
L 357.758333 478.415293 
z
" style="fill:#9467bd;"/>
   </g>
   <g id="patch_89">
    <path clip-path="url(#p362145a38a)" d="M 379.458333 480.6 
L 381.266667 480.6 
L 381.266667 478.263769 
L 379.458333 478.263769 
z
" style="fill:#9467bd;"/>
   </g>
   <g id="patch_90">
    <path clip-path="url(#p362145a38a)" d="M 401.158333 480.6 
L 402.966667 480.6 
L 402.966667 478.319945 
L 401.158333 478.319945 
z
" style="fill:#9467bd;"/>
   </g>
   <g id="patch_91">
    <path clip-path="url(#p362145a38a)" d="M 422.858333 480.6 
L 424.666667 480.6 
L 424.666667 477.975631 
L 422.858333 477.975631 
z
" style="fill:#9467bd;"/>
   </g>
   <g id="patch_92">
    <path clip-path="url(#p362145a38a)" d="M 444.558333 480.6 
L 446.366667 480.6 
L 446.366667 478.037338 
L 444.558333 478.037338 
z
" style="fill:#9467bd;"/>
   </g>
   <g id="patch_93">
    <path clip-path="url(#p362145a38a)" d="M 77.466667 480.6 
L 79.275 480.6 
L 79.275 278.931358 
L 77.466667 278.931358 
z
" style="fill:#8c564b;"/>
   </g>
   <g id="patch_94">
    <path clip-path="url(#p362145a38a)" d="M 99.166667 480.6 
L 100.975 480.6 
L 100.975 274.557455 
L 99.166667 274.557455 
z
" style="fill:#8c564b;"/>
   </g>
   <g id="patch_95">
    <path clip-path="url(#p362145a38a)" d="M 120.866667 480.6 
L 122.675 480.6 
L 122.675 324.559445 
L 120.866667 324.559445 
z
" style="fill:#8c564b;"/>
   </g>
   <g id="patch_96">
    <path clip-path="url(#p362145a38a)" d="M 142.566667 480.6 
L 144.375 480.6 
L 144.375 291.560728 
L 142.566667 291.560728 
z
" style="fill:#8c564b;"/>
   </g>
   <g id="patch_97">
    <path clip-path="url(#p362145a38a)" d="M 164.266667 480.6 
L 166.075 480.6 
L 166.075 255.587885 
L 164.266667 255.587885 
z
" style="fill:#8c564b;"/>
   </g>
   <g id="patch_98">
    <path clip-path="url(#p362145a38a)" d="M 185.966667 480.6 
L 187.775 480.6 
L 187.775 220.667343 
L 185.966667 220.667343 
z
" style="fill:#8c564b;"/>
   </g>
   <g id="patch_99">
    <path clip-path="url(#p362145a38a)" d="M 207.666667 480.6 
L 209.475 480.6 
L 209.475 358.977134 
L 207.666667 358.977134 
z
" style="fill:#8c564b;"/>
   </g>
   <g id="patch_100">
    <path clip-path="url(#p362145a38a)" d="M 229.366667 480.6 
L 231.175 480.6 
L 231.175 267.129616 
L 229.366667 267.129616 
z
" style="fill:#8c564b;"/>
   </g>
   <g id="patch_101">
    <path clip-path="url(#p362145a38a)" d="M 251.066667 480.6 
L 252.875 480.6 
L 252.875 257.053191 
L 251.066667 257.053191 
z
" style="fill:#8c564b;"/>
   </g>
   <g id="patch_102">
    <path clip-path="url(#p362145a38a)" d="M 272.766667 480.6 
L 274.575 480.6 
L 274.575 84.6 
L 272.766667 84.6 
z
" style="fill:#8c564b;"/>
   </g>
   <g id="patch_103">
    <path clip-path="url(#p362145a38a)" d="M 294.466667 480.6 
L 296.275 480.6 
L 296.275 398.156061 
L 294.466667 398.156061 
z
" style="fill:#8c564b;"/>
   </g>
   <g id="patch_104">
    <path clip-path="url(#p362145a38a)" d="M 316.166667 480.6 
L 317.975 480.6 
L 317.975 396.008813 
L 316.166667 396.008813 
z
" style="fill:#8c564b;"/>
   </g>
   <g id="patch_105">
    <path clip-path="url(#p362145a38a)" d="M 337.866667 480.6 
L 339.675 480.6 
L 339.675 410.584341 
L 337.866667 410.584341 
z
" style="fill:#8c564b;"/>
   </g>
   <g id="patch_106">
    <path clip-path="url(#p362145a38a)" d="M 359.566667 480.6 
L 361.375 480.6 
L 361.375 430.27402 
L 359.566667 430.27402 
z
" style="fill:#8c564b;"/>
   </g>
   <g id="patch_107">
    <path clip-path="url(#p362145a38a)" d="M 381.266667 480.6 
L 383.075 480.6 
L 383.075 422.424758 
L 381.266667 422.424758 
z
" style="fill:#8c564b;"/>
   </g>
   <g id="patch_108">
    <path clip-path="url(#p362145a38a)" d="M 402.966667 480.6 
L 404.775 480.6 
L 404.775 407.85714 
L 402.966667 407.85714 
z
" style="fill:#8c564b;"/>
   </g>
   <g id="patch_109">
    <path clip-path="url(#p362145a38a)" d="M 424.666667 480.6 
L 426.475 480.6 
L 426.475 324.141913 
L 424.666667 324.141913 
z
" style="fill:#8c564b;"/>
   </g>
   <g id="patch_110">
    <path clip-path="url(#p362145a38a)" d="M 446.366667 480.6 
L 448.175 480.6 
L 448.175 391.011167 
L 446.366667 391.011167 
z
" style="fill:#8c564b;"/>
   </g>
   <g id="matplotlib.axis_1">
    <g id="xtick_1">
     <g id="line2d_1">
      <defs>
       <path d="M 0 0 
L 0 3.5 
" id="m609706a617" style="stroke:#000000;stroke-width:0.8;"/>
      </defs>
      <g>
       <use style="stroke:#000000;stroke-width:0.8;" x="73.85" xlink:href="#m609706a617" y="480.6"/>
      </g>
     </g>
     <g id="text_1">
      <!-- CSR/Brand -->
      <defs>
       <path d="M 64.40625 67.28125 
L 64.40625 56.890625 
Q 59.421875 61.53125 53.78125 63.8125 
Q 48.140625 66.109375 41.796875 66.109375 
Q 29.296875 66.109375 22.65625 58.46875 
Q 16.015625 50.828125 16.015625 36.375 
Q 16.015625 21.96875 22.65625 14.328125 
Q 29.296875 6.6875 41.796875 6.6875 
Q 48.140625 6.6875 53.78125 8.984375 
Q 59.421875 11.28125 64.40625 15.921875 
L 64.40625 5.609375 
Q 59.234375 2.09375 53.4375 0.328125 
Q 47.65625 -1.421875 41.21875 -1.421875 
Q 24.65625 -1.421875 15.125 8.703125 
Q 5.609375 18.84375 5.609375 36.375 
Q 5.609375 53.953125 15.125 64.078125 
Q 24.65625 74.21875 41.21875 74.21875 
Q 47.75 74.21875 53.53125 72.484375 
Q 59.328125 70.75 64.40625 67.28125 
z
" id="DejaVuSans-67"/>
       <path d="M 53.515625 70.515625 
L 53.515625 60.890625 
Q 47.90625 63.578125 42.921875 64.890625 
Q 37.9375 66.21875 33.296875 66.21875 
Q 25.25 66.21875 20.875 63.09375 
Q 16.5 59.96875 16.5 54.203125 
Q 16.5 49.359375 19.40625 46.890625 
Q 22.3125 44.4375 30.421875 42.921875 
L 36.375 41.703125 
Q 47.40625 39.59375 52.65625 34.296875 
Q 57.90625 29 57.90625 20.125 
Q 57.90625 9.515625 50.796875 4.046875 
Q 43.703125 -1.421875 29.984375 -1.421875 
Q 24.8125 -1.421875 18.96875 -0.25 
Q 13.140625 0.921875 6.890625 3.21875 
L 6.890625 13.375 
Q 12.890625 10.015625 18.65625 8.296875 
Q 24.421875 6.59375 29.984375 6.59375 
Q 38.421875 6.59375 43.015625 9.90625 
Q 47.609375 13.234375 47.609375 19.390625 
Q 47.609375 24.75 44.3125 27.78125 
Q 41.015625 30.8125 33.5 32.328125 
L 27.484375 33.5 
Q 16.453125 35.6875 11.515625 40.375 
Q 6.59375 45.0625 6.59375 53.421875 
Q 6.59375 63.09375 13.40625 68.65625 
Q 20.21875 74.21875 32.171875 74.21875 
Q 37.3125 74.21875 42.625 73.28125 
Q 47.953125 72.359375 53.515625 70.515625 
z
" id="DejaVuSans-83"/>
       <path d="M 44.390625 34.1875 
Q 47.5625 33.109375 50.5625 29.59375 
Q 53.5625 26.078125 56.59375 19.921875 
L 66.609375 0 
L 56 0 
L 46.6875 18.703125 
Q 43.0625 26.03125 39.671875 28.421875 
Q 36.28125 30.8125 30.421875 30.8125 
L 19.671875 30.8125 
L 19.671875 0 
L 9.8125 0 
L 9.8125 72.90625 
L 32.078125 72.90625 
Q 44.578125 72.90625 50.734375 67.671875 
Q 56.890625 62.453125 56.890625 51.90625 
Q 56.890625 45.015625 53.6875 40.46875 
Q 50.484375 35.9375 44.390625 34.1875 
z
M 19.671875 64.796875 
L 19.671875 38.921875 
L 32.078125 38.921875 
Q 39.203125 38.921875 42.84375 42.21875 
Q 46.484375 45.515625 46.484375 51.90625 
Q 46.484375 58.296875 42.84375 61.546875 
Q 39.203125 64.796875 32.078125 64.796875 
z
" id="DejaVuSans-82"/>
       <path d="M 25.390625 72.90625 
L 33.6875 72.90625 
L 8.296875 -9.28125 
L 0 -9.28125 
z
" id="DejaVuSans-47"/>
       <path d="M 19.671875 34.8125 
L 19.671875 8.109375 
L 35.5 8.109375 
Q 43.453125 8.109375 47.28125 11.40625 
Q 51.125 14.703125 51.125 21.484375 
Q 51.125 28.328125 47.28125 31.5625 
Q 43.453125 34.8125 35.5 34.8125 
z
M 19.671875 64.796875 
L 19.671875 42.828125 
L 34.28125 42.828125 
Q 41.5 42.828125 45.03125 45.53125 
Q 48.578125 48.25 48.578125 53.8125 
Q 48.578125 59.328125 45.03125 62.0625 
Q 41.5 64.796875 34.28125 64.796875 
z
M 9.8125 72.90625 
L 35.015625 72.90625 
Q 46.296875 72.90625 52.390625 68.21875 
Q 58.5 63.53125 58.5 54.890625 
Q 58.5 48.1875 55.375 44.234375 
Q 52.25 40.28125 46.1875 39.3125 
Q 53.46875 37.75 57.5 32.78125 
Q 61.53125 27.828125 61.53125 20.40625 
Q 61.53125 10.640625 54.890625 5.3125 
Q 48.25 0 35.984375 0 
L 9.8125 0 
z
" id="DejaVuSans-66"/>
       <path d="M 41.109375 46.296875 
Q 39.59375 47.171875 37.8125 47.578125 
Q 36.03125 48 33.890625 48 
Q 26.265625 48 22.1875 43.046875 
Q 18.109375 38.09375 18.109375 28.8125 
L 18.109375 0 
L 9.078125 0 
L 9.078125 54.6875 
L 18.109375 54.6875 
L 18.109375 46.1875 
Q 20.953125 51.171875 25.484375 53.578125 
Q 30.03125 56 36.53125 56 
Q 37.453125 56 38.578125 55.875 
Q 39.703125 55.765625 41.0625 55.515625 
z
" id="DejaVuSans-114"/>
       <path d="M 34.28125 27.484375 
Q 23.390625 27.484375 19.1875 25 
Q 14.984375 22.515625 14.984375 16.5 
Q 14.984375 11.71875 18.140625 8.90625 
Q 21.296875 6.109375 26.703125 6.109375 
Q 34.1875 6.109375 38.703125 11.40625 
Q 43.21875 16.703125 43.21875 25.484375 
L 43.21875 27.484375 
z
M 52.203125 31.203125 
L 52.203125 0 
L 43.21875 0 
L 43.21875 8.296875 
Q 40.140625 3.328125 35.546875 0.953125 
Q 30.953125 -1.421875 24.3125 -1.421875 
Q 15.921875 -1.421875 10.953125 3.296875 
Q 6 8.015625 6 15.921875 
Q 6 25.140625 12.171875 29.828125 
Q 18.359375 34.515625 30.609375 34.515625 
L 43.21875 34.515625 
L 43.21875 35.40625 
Q 43.21875 41.609375 39.140625 45 
Q 35.0625 48.390625 27.6875 48.390625 
Q 23 48.390625 18.546875 47.265625 
Q 14.109375 46.140625 10.015625 43.890625 
L 10.015625 52.203125 
Q 14.9375 54.109375 19.578125 55.046875 
Q 24.21875 56 28.609375 56 
Q 40.484375 56 46.34375 49.84375 
Q 52.203125 43.703125 52.203125 31.203125 
z
" id="DejaVuSans-97"/>
       <path d="M 54.890625 33.015625 
L 54.890625 0 
L 45.90625 0 
L 45.90625 32.71875 
Q 45.90625 40.484375 42.875 44.328125 
Q 39.84375 48.1875 33.796875 48.1875 
Q 26.515625 48.1875 22.3125 43.546875 
Q 18.109375 38.921875 18.109375 30.90625 
L 18.109375 0 
L 9.078125 0 
L 9.078125 54.6875 
L 18.109375 54.6875 
L 18.109375 46.1875 
Q 21.34375 51.125 25.703125 53.5625 
Q 30.078125 56 35.796875 56 
Q 45.21875 56 50.046875 50.171875 
Q 54.890625 44.34375 54.890625 33.015625 
z
" id="DejaVuSans-110"/>
       <path d="M 45.40625 46.390625 
L 45.40625 75.984375 
L 54.390625 75.984375 
L 54.390625 0 
L 45.40625 0 
L 45.40625 8.203125 
Q 42.578125 3.328125 38.25 0.953125 
Q 33.9375 -1.421875 27.875 -1.421875 
Q 17.96875 -1.421875 11.734375 6.484375 
Q 5.515625 14.40625 5.515625 27.296875 
Q 5.515625 40.1875 11.734375 48.09375 
Q 17.96875 56 27.875 56 
Q 33.9375 56 38.25 53.625 
Q 42.578125 51.265625 45.40625 46.390625 
z
M 14.796875 27.296875 
Q 14.796875 17.390625 18.875 11.75 
Q 22.953125 6.109375 30.078125 6.109375 
Q 37.203125 6.109375 41.296875 11.75 
Q 45.40625 17.390625 45.40625 27.296875 
Q 45.40625 37.203125 41.296875 42.84375 
Q 37.203125 48.484375 30.078125 48.484375 
Q 22.953125 48.484375 18.875 42.84375 
Q 14.796875 37.203125 14.796875 27.296875 
z
" id="DejaVuSans-100"/>
      </defs>
      <g transform="translate(69.600435 541.180263)rotate(-75)scale(0.1 -0.1)">
       <use xlink:href="#DejaVuSans-67"/>
       <use x="69.824219" xlink:href="#DejaVuSans-83"/>
       <use x="133.300781" xlink:href="#DejaVuSans-82"/>
       <use x="202.783203" xlink:href="#DejaVuSans-47"/>
       <use x="236.474609" xlink:href="#DejaVuSans-66"/>
       <use x="305.078125" xlink:href="#DejaVuSans-114"/>
       <use x="346.191406" xlink:href="#DejaVuSans-97"/>
       <use x="407.470703" xlink:href="#DejaVuSans-110"/>
       <use x="470.849609" xlink:href="#DejaVuSans-100"/>
      </g>
     </g>
    </g>
    <g id="xtick_2">
     <g id="line2d_2">
      <g>
       <use style="stroke:#000000;stroke-width:0.8;" x="95.55" xlink:href="#m609706a617" y="480.6"/>
      </g>
     </g>
     <g id="text_2">
      <!-- Macroeconomics -->
      <defs>
       <path d="M 9.8125 72.90625 
L 24.515625 72.90625 
L 43.109375 23.296875 
L 61.8125 72.90625 
L 76.515625 72.90625 
L 76.515625 0 
L 66.890625 0 
L 66.890625 64.015625 
L 48.09375 14.015625 
L 38.1875 14.015625 
L 19.390625 64.015625 
L 19.390625 0 
L 9.8125 0 
z
" id="DejaVuSans-77"/>
       <path d="M 48.78125 52.59375 
L 48.78125 44.1875 
Q 44.96875 46.296875 41.140625 47.34375 
Q 37.3125 48.390625 33.40625 48.390625 
Q 24.65625 48.390625 19.8125 42.84375 
Q 14.984375 37.3125 14.984375 27.296875 
Q 14.984375 17.28125 19.8125 11.734375 
Q 24.65625 6.203125 33.40625 6.203125 
Q 37.3125 6.203125 41.140625 7.25 
Q 44.96875 8.296875 48.78125 10.40625 
L 48.78125 2.09375 
Q 45.015625 0.34375 40.984375 -0.53125 
Q 36.96875 -1.421875 32.421875 -1.421875 
Q 20.0625 -1.421875 12.78125 6.34375 
Q 5.515625 14.109375 5.515625 27.296875 
Q 5.515625 40.671875 12.859375 48.328125 
Q 20.21875 56 33.015625 56 
Q 37.15625 56 41.109375 55.140625 
Q 45.0625 54.296875 48.78125 52.59375 
z
" id="DejaVuSans-99"/>
       <path d="M 30.609375 48.390625 
Q 23.390625 48.390625 19.1875 42.75 
Q 14.984375 37.109375 14.984375 27.296875 
Q 14.984375 17.484375 19.15625 11.84375 
Q 23.34375 6.203125 30.609375 6.203125 
Q 37.796875 6.203125 41.984375 11.859375 
Q 46.1875 17.53125 46.1875 27.296875 
Q 46.1875 37.015625 41.984375 42.703125 
Q 37.796875 48.390625 30.609375 48.390625 
z
M 30.609375 56 
Q 42.328125 56 49.015625 48.375 
Q 55.71875 40.765625 55.71875 27.296875 
Q 55.71875 13.875 49.015625 6.21875 
Q 42.328125 -1.421875 30.609375 -1.421875 
Q 18.84375 -1.421875 12.171875 6.21875 
Q 5.515625 13.875 5.515625 27.296875 
Q 5.515625 40.765625 12.171875 48.375 
Q 18.84375 56 30.609375 56 
z
" id="DejaVuSans-111"/>
       <path d="M 56.203125 29.59375 
L 56.203125 25.203125 
L 14.890625 25.203125 
Q 15.484375 15.921875 20.484375 11.0625 
Q 25.484375 6.203125 34.421875 6.203125 
Q 39.59375 6.203125 44.453125 7.46875 
Q 49.3125 8.734375 54.109375 11.28125 
L 54.109375 2.78125 
Q 49.265625 0.734375 44.1875 -0.34375 
Q 39.109375 -1.421875 33.890625 -1.421875 
Q 20.796875 -1.421875 13.15625 6.1875 
Q 5.515625 13.8125 5.515625 26.8125 
Q 5.515625 40.234375 12.765625 48.109375 
Q 20.015625 56 32.328125 56 
Q 43.359375 56 49.78125 48.890625 
Q 56.203125 41.796875 56.203125 29.59375 
z
M 47.21875 32.234375 
Q 47.125 39.59375 43.09375 43.984375 
Q 39.0625 48.390625 32.421875 48.390625 
Q 24.90625 48.390625 20.390625 44.140625 
Q 15.875 39.890625 15.1875 32.171875 
z
" id="DejaVuSans-101"/>
       <path d="M 52 44.1875 
Q 55.375 50.25 60.0625 53.125 
Q 64.75 56 71.09375 56 
Q 79.640625 56 84.28125 50.015625 
Q 88.921875 44.046875 88.921875 33.015625 
L 88.921875 0 
L 79.890625 0 
L 79.890625 32.71875 
Q 79.890625 40.578125 77.09375 44.375 
Q 74.3125 48.1875 68.609375 48.1875 
Q 61.625 48.1875 57.5625 43.546875 
Q 53.515625 38.921875 53.515625 30.90625 
L 53.515625 0 
L 44.484375 0 
L 44.484375 32.71875 
Q 44.484375 40.625 41.703125 44.40625 
Q 38.921875 48.1875 33.109375 48.1875 
Q 26.21875 48.1875 22.15625 43.53125 
Q 18.109375 38.875 18.109375 30.90625 
L 18.109375 0 
L 9.078125 0 
L 9.078125 54.6875 
L 18.109375 54.6875 
L 18.109375 46.1875 
Q 21.1875 51.21875 25.484375 53.609375 
Q 29.78125 56 35.6875 56 
Q 41.65625 56 45.828125 52.96875 
Q 50 49.953125 52 44.1875 
z
" id="DejaVuSans-109"/>
       <path d="M 9.421875 54.6875 
L 18.40625 54.6875 
L 18.40625 0 
L 9.421875 0 
z
M 9.421875 75.984375 
L 18.40625 75.984375 
L 18.40625 64.59375 
L 9.421875 64.59375 
z
" id="DejaVuSans-105"/>
       <path d="M 44.28125 53.078125 
L 44.28125 44.578125 
Q 40.484375 46.53125 36.375 47.5 
Q 32.28125 48.484375 27.875 48.484375 
Q 21.1875 48.484375 17.84375 46.4375 
Q 14.5 44.390625 14.5 40.28125 
Q 14.5 37.15625 16.890625 35.375 
Q 19.28125 33.59375 26.515625 31.984375 
L 29.59375 31.296875 
Q 39.15625 29.25 43.1875 25.515625 
Q 47.21875 21.78125 47.21875 15.09375 
Q 47.21875 7.46875 41.1875 3.015625 
Q 35.15625 -1.421875 24.609375 -1.421875 
Q 20.21875 -1.421875 15.453125 -0.5625 
Q 10.6875 0.296875 5.421875 2 
L 5.421875 11.28125 
Q 10.40625 8.6875 15.234375 7.390625 
Q 20.0625 6.109375 24.8125 6.109375 
Q 31.15625 6.109375 34.5625 8.28125 
Q 37.984375 10.453125 37.984375 14.40625 
Q 37.984375 18.0625 35.515625 20.015625 
Q 33.0625 21.96875 24.703125 23.78125 
L 21.578125 24.515625 
Q 13.234375 26.265625 9.515625 29.90625 
Q 5.8125 33.546875 5.8125 39.890625 
Q 5.8125 47.609375 11.28125 51.796875 
Q 16.75 56 26.8125 56 
Q 31.78125 56 36.171875 55.265625 
Q 40.578125 54.546875 44.28125 53.078125 
z
" id="DejaVuSans-115"/>
      </defs>
      <g transform="translate(87.353444 570.641001)rotate(-75)scale(0.1 -0.1)">
       <use xlink:href="#DejaVuSans-77"/>
       <use x="86.279297" xlink:href="#DejaVuSans-97"/>
       <use x="147.558594" xlink:href="#DejaVuSans-99"/>
       <use x="202.539062" xlink:href="#DejaVuSans-114"/>
       <use x="243.621094" xlink:href="#DejaVuSans-111"/>
       <use x="304.802734" xlink:href="#DejaVuSans-101"/>
       <use x="366.326172" xlink:href="#DejaVuSans-99"/>
       <use x="421.306641" xlink:href="#DejaVuSans-111"/>
       <use x="482.488281" xlink:href="#DejaVuSans-110"/>
       <use x="545.867188" xlink:href="#DejaVuSans-111"/>
       <use x="607.048828" xlink:href="#DejaVuSans-109"/>
       <use x="704.460938" xlink:href="#DejaVuSans-105"/>
       <use x="732.244141" xlink:href="#DejaVuSans-99"/>
       <use x="787.224609" xlink:href="#DejaVuSans-115"/>
      </g>
     </g>
    </g>
    <g id="xtick_3">
     <g id="line2d_3">
      <g>
       <use style="stroke:#000000;stroke-width:0.8;" x="117.25" xlink:href="#m609706a617" y="480.6"/>
      </g>
     </g>
     <g id="text_3">
      <!-- FinancialReport -->
      <defs>
       <path d="M 9.8125 72.90625 
L 51.703125 72.90625 
L 51.703125 64.59375 
L 19.671875 64.59375 
L 19.671875 43.109375 
L 48.578125 43.109375 
L 48.578125 34.8125 
L 19.671875 34.8125 
L 19.671875 0 
L 9.8125 0 
z
" id="DejaVuSans-70"/>
       <path d="M 9.421875 75.984375 
L 18.40625 75.984375 
L 18.40625 0 
L 9.421875 0 
z
" id="DejaVuSans-108"/>
       <path d="M 18.109375 8.203125 
L 18.109375 -20.796875 
L 9.078125 -20.796875 
L 9.078125 54.6875 
L 18.109375 54.6875 
L 18.109375 46.390625 
Q 20.953125 51.265625 25.265625 53.625 
Q 29.59375 56 35.59375 56 
Q 45.5625 56 51.78125 48.09375 
Q 58.015625 40.1875 58.015625 27.296875 
Q 58.015625 14.40625 51.78125 6.484375 
Q 45.5625 -1.421875 35.59375 -1.421875 
Q 29.59375 -1.421875 25.265625 0.953125 
Q 20.953125 3.328125 18.109375 8.203125 
z
M 48.6875 27.296875 
Q 48.6875 37.203125 44.609375 42.84375 
Q 40.53125 48.484375 33.40625 48.484375 
Q 26.265625 48.484375 22.1875 42.84375 
Q 18.109375 37.203125 18.109375 27.296875 
Q 18.109375 17.390625 22.1875 11.75 
Q 26.265625 6.109375 33.40625 6.109375 
Q 40.53125 6.109375 44.609375 11.75 
Q 48.6875 17.390625 48.6875 27.296875 
z
" id="DejaVuSans-112"/>
       <path d="M 18.3125 70.21875 
L 18.3125 54.6875 
L 36.8125 54.6875 
L 36.8125 47.703125 
L 18.3125 47.703125 
L 18.3125 18.015625 
Q 18.3125 11.328125 20.140625 9.421875 
Q 21.96875 7.515625 27.59375 7.515625 
L 36.8125 7.515625 
L 36.8125 0 
L 27.59375 0 
Q 17.1875 0 13.234375 3.875 
Q 9.28125 7.765625 9.28125 18.015625 
L 9.28125 47.703125 
L 2.6875 47.703125 
L 2.6875 54.6875 
L 9.28125 54.6875 
L 9.28125 70.21875 
z
" id="DejaVuSans-116"/>
      </defs>
      <g transform="translate(109.80867 565.003918)rotate(-75)scale(0.1 -0.1)">
       <use xlink:href="#DejaVuSans-70"/>
       <use x="57.410156" xlink:href="#DejaVuSans-105"/>
       <use x="85.193359" xlink:href="#DejaVuSans-110"/>
       <use x="148.572266" xlink:href="#DejaVuSans-97"/>
       <use x="209.851562" xlink:href="#DejaVuSans-110"/>
       <use x="273.230469" xlink:href="#DejaVuSans-99"/>
       <use x="328.210938" xlink:href="#DejaVuSans-105"/>
       <use x="355.994141" xlink:href="#DejaVuSans-97"/>
       <use x="417.273438" xlink:href="#DejaVuSans-108"/>
       <use x="445.056641" xlink:href="#DejaVuSans-82"/>
       <use x="514.476562" xlink:href="#DejaVuSans-101"/>
       <use x="576" xlink:href="#DejaVuSans-112"/>
       <use x="639.476562" xlink:href="#DejaVuSans-111"/>
       <use x="700.658203" xlink:href="#DejaVuSans-114"/>
       <use x="741.771484" xlink:href="#DejaVuSans-116"/>
      </g>
     </g>
    </g>
    <g id="xtick_4">
     <g id="line2d_4">
      <g>
       <use style="stroke:#000000;stroke-width:0.8;" x="138.95" xlink:href="#m609706a617" y="480.6"/>
      </g>
     </g>
     <g id="text_4">
      <!-- Employment -->
      <defs>
       <path d="M 9.8125 72.90625 
L 55.90625 72.90625 
L 55.90625 64.59375 
L 19.671875 64.59375 
L 19.671875 43.015625 
L 54.390625 43.015625 
L 54.390625 34.71875 
L 19.671875 34.71875 
L 19.671875 8.296875 
L 56.78125 8.296875 
L 56.78125 0 
L 9.8125 0 
z
" id="DejaVuSans-69"/>
       <path d="M 32.171875 -5.078125 
Q 28.375 -14.84375 24.75 -17.8125 
Q 21.140625 -20.796875 15.09375 -20.796875 
L 7.90625 -20.796875 
L 7.90625 -13.28125 
L 13.1875 -13.28125 
Q 16.890625 -13.28125 18.9375 -11.515625 
Q 21 -9.765625 23.484375 -3.21875 
L 25.09375 0.875 
L 2.984375 54.6875 
L 12.5 54.6875 
L 29.59375 11.921875 
L 46.6875 54.6875 
L 56.203125 54.6875 
z
" id="DejaVuSans-121"/>
      </defs>
      <g transform="translate(133.414023 550.78217)rotate(-75)scale(0.1 -0.1)">
       <use xlink:href="#DejaVuSans-69"/>
       <use x="63.183594" xlink:href="#DejaVuSans-109"/>
       <use x="160.595703" xlink:href="#DejaVuSans-112"/>
       <use x="224.072266" xlink:href="#DejaVuSans-108"/>
       <use x="251.855469" xlink:href="#DejaVuSans-111"/>
       <use x="313.037109" xlink:href="#DejaVuSans-121"/>
       <use x="372.216797" xlink:href="#DejaVuSans-109"/>
       <use x="469.628906" xlink:href="#DejaVuSans-101"/>
       <use x="531.152344" xlink:href="#DejaVuSans-110"/>
       <use x="594.53125" xlink:href="#DejaVuSans-116"/>
      </g>
     </g>
    </g>
    <g id="xtick_5">
     <g id="line2d_5">
      <g>
       <use style="stroke:#000000;stroke-width:0.8;" x="160.65" xlink:href="#m609706a617" y="480.6"/>
      </g>
     </g>
     <g id="text_5">
      <!-- Product/Service -->
      <defs>
       <path d="M 19.671875 64.796875 
L 19.671875 37.40625 
L 32.078125 37.40625 
Q 38.96875 37.40625 42.71875 40.96875 
Q 46.484375 44.53125 46.484375 51.125 
Q 46.484375 57.671875 42.71875 61.234375 
Q 38.96875 64.796875 32.078125 64.796875 
z
M 9.8125 72.90625 
L 32.078125 72.90625 
Q 44.34375 72.90625 50.609375 67.359375 
Q 56.890625 61.8125 56.890625 51.125 
Q 56.890625 40.328125 50.609375 34.8125 
Q 44.34375 29.296875 32.078125 29.296875 
L 19.671875 29.296875 
L 19.671875 0 
L 9.8125 0 
z
" id="DejaVuSans-80"/>
       <path d="M 8.5 21.578125 
L 8.5 54.6875 
L 17.484375 54.6875 
L 17.484375 21.921875 
Q 17.484375 14.15625 20.5 10.265625 
Q 23.53125 6.390625 29.59375 6.390625 
Q 36.859375 6.390625 41.078125 11.03125 
Q 45.3125 15.671875 45.3125 23.6875 
L 45.3125 54.6875 
L 54.296875 54.6875 
L 54.296875 0 
L 45.3125 0 
L 45.3125 8.40625 
Q 42.046875 3.421875 37.71875 1 
Q 33.40625 -1.421875 27.6875 -1.421875 
Q 18.265625 -1.421875 13.375 4.4375 
Q 8.5 10.296875 8.5 21.578125 
z
M 31.109375 56 
z
" id="DejaVuSans-117"/>
       <path d="M 2.984375 54.6875 
L 12.5 54.6875 
L 29.59375 8.796875 
L 46.6875 54.6875 
L 56.203125 54.6875 
L 35.6875 0 
L 23.484375 0 
z
" id="DejaVuSans-118"/>
      </defs>
      <g transform="translate(153.132238 565.574418)rotate(-75)scale(0.1 -0.1)">
       <use xlink:href="#DejaVuSans-80"/>
       <use x="60.287109" xlink:href="#DejaVuSans-114"/>
       <use x="101.369141" xlink:href="#DejaVuSans-111"/>
       <use x="162.550781" xlink:href="#DejaVuSans-100"/>
       <use x="226.027344" xlink:href="#DejaVuSans-117"/>
       <use x="289.40625" xlink:href="#DejaVuSans-99"/>
       <use x="344.386719" xlink:href="#DejaVuSans-116"/>
       <use x="383.595703" xlink:href="#DejaVuSans-47"/>
       <use x="417.287109" xlink:href="#DejaVuSans-83"/>
       <use x="480.763672" xlink:href="#DejaVuSans-101"/>
       <use x="542.287109" xlink:href="#DejaVuSans-114"/>
       <use x="583.400391" xlink:href="#DejaVuSans-118"/>
       <use x="642.580078" xlink:href="#DejaVuSans-105"/>
       <use x="670.363281" xlink:href="#DejaVuSans-99"/>
       <use x="725.34375" xlink:href="#DejaVuSans-101"/>
      </g>
     </g>
    </g>
    <g id="xtick_6">
     <g id="line2d_6">
      <g>
       <use style="stroke:#000000;stroke-width:0.8;" x="182.35" xlink:href="#m609706a617" y="480.6"/>
      </g>
     </g>
     <g id="text_6">
      <!-- Financing -->
      <defs>
       <path d="M 45.40625 27.984375 
Q 45.40625 37.75 41.375 43.109375 
Q 37.359375 48.484375 30.078125 48.484375 
Q 22.859375 48.484375 18.828125 43.109375 
Q 14.796875 37.75 14.796875 27.984375 
Q 14.796875 18.265625 18.828125 12.890625 
Q 22.859375 7.515625 30.078125 7.515625 
Q 37.359375 7.515625 41.375 12.890625 
Q 45.40625 18.265625 45.40625 27.984375 
z
M 54.390625 6.78125 
Q 54.390625 -7.171875 48.1875 -13.984375 
Q 42 -20.796875 29.203125 -20.796875 
Q 24.46875 -20.796875 20.265625 -20.09375 
Q 16.0625 -19.390625 12.109375 -17.921875 
L 12.109375 -9.1875 
Q 16.0625 -11.328125 19.921875 -12.34375 
Q 23.78125 -13.375 27.78125 -13.375 
Q 36.625 -13.375 41.015625 -8.765625 
Q 45.40625 -4.15625 45.40625 5.171875 
L 45.40625 9.625 
Q 42.625 4.78125 38.28125 2.390625 
Q 33.9375 0 27.875 0 
Q 17.828125 0 11.671875 7.65625 
Q 5.515625 15.328125 5.515625 27.984375 
Q 5.515625 40.671875 11.671875 48.328125 
Q 17.828125 56 27.875 56 
Q 33.9375 56 38.28125 53.609375 
Q 42.625 51.21875 45.40625 46.390625 
L 45.40625 54.6875 
L 54.390625 54.6875 
z
" id="DejaVuSans-103"/>
      </defs>
      <g transform="translate(178.766894 536.205745)rotate(-75)scale(0.1 -0.1)">
       <use xlink:href="#DejaVuSans-70"/>
       <use x="57.410156" xlink:href="#DejaVuSans-105"/>
       <use x="85.193359" xlink:href="#DejaVuSans-110"/>
       <use x="148.572266" xlink:href="#DejaVuSans-97"/>
       <use x="209.851562" xlink:href="#DejaVuSans-110"/>
       <use x="273.230469" xlink:href="#DejaVuSans-99"/>
       <use x="328.210938" xlink:href="#DejaVuSans-105"/>
       <use x="355.994141" xlink:href="#DejaVuSans-110"/>
       <use x="419.373047" xlink:href="#DejaVuSans-103"/>
      </g>
     </g>
    </g>
    <g id="xtick_7">
     <g id="line2d_7">
      <g>
       <use style="stroke:#000000;stroke-width:0.8;" x="204.05" xlink:href="#m609706a617" y="480.6"/>
      </g>
     </g>
     <g id="text_7">
      <!-- SecurityValue -->
      <defs>
       <path d="M 28.609375 0 
L 0.78125 72.90625 
L 11.078125 72.90625 
L 34.1875 11.53125 
L 57.328125 72.90625 
L 67.578125 72.90625 
L 39.796875 0 
z
" id="DejaVuSans-86"/>
      </defs>
      <g transform="translate(197.748283 556.497734)rotate(-75)scale(0.1 -0.1)">
       <use xlink:href="#DejaVuSans-83"/>
       <use x="63.476562" xlink:href="#DejaVuSans-101"/>
       <use x="125" xlink:href="#DejaVuSans-99"/>
       <use x="179.980469" xlink:href="#DejaVuSans-117"/>
       <use x="243.359375" xlink:href="#DejaVuSans-114"/>
       <use x="284.472656" xlink:href="#DejaVuSans-105"/>
       <use x="312.255859" xlink:href="#DejaVuSans-116"/>
       <use x="351.464844" xlink:href="#DejaVuSans-121"/>
       <use x="410.644531" xlink:href="#DejaVuSans-86"/>
       <use x="478.943359" xlink:href="#DejaVuSans-97"/>
       <use x="540.222656" xlink:href="#DejaVuSans-108"/>
       <use x="568.005859" xlink:href="#DejaVuSans-117"/>
       <use x="631.384766" xlink:href="#DejaVuSans-101"/>
      </g>
     </g>
    </g>
    <g id="xtick_8">
     <g id="line2d_8">
      <g>
       <use style="stroke:#000000;stroke-width:0.8;" x="225.75" xlink:href="#m609706a617" y="480.6"/>
      </g>
     </g>
     <g id="text_8">
      <!-- Facility -->
      <g transform="translate(223.816461 523.893209)rotate(-75)scale(0.1 -0.1)">
       <use xlink:href="#DejaVuSans-70"/>
       <use x="57.378906" xlink:href="#DejaVuSans-97"/>
       <use x="118.658203" xlink:href="#DejaVuSans-99"/>
       <use x="173.638672" xlink:href="#DejaVuSans-105"/>
       <use x="201.421875" xlink:href="#DejaVuSans-108"/>
       <use x="229.205078" xlink:href="#DejaVuSans-105"/>
       <use x="256.988281" xlink:href="#DejaVuSans-116"/>
       <use x="296.197266" xlink:href="#DejaVuSans-121"/>
      </g>
     </g>
    </g>
    <g id="xtick_9">
     <g id="line2d_9">
      <g>
       <use style="stroke:#000000;stroke-width:0.8;" x="247.45" xlink:href="#m609706a617" y="480.6"/>
      </g>
     </g>
     <g id="text_9">
      <!-- Legal -->
      <defs>
       <path d="M 9.8125 72.90625 
L 19.671875 72.90625 
L 19.671875 8.296875 
L 55.171875 8.296875 
L 55.171875 0 
L 9.8125 0 
z
" id="DejaVuSans-76"/>
      </defs>
      <g transform="translate(246.624125 515.625488)rotate(-75)scale(0.1 -0.1)">
       <use xlink:href="#DejaVuSans-76"/>
       <use x="55.697266" xlink:href="#DejaVuSans-101"/>
       <use x="117.220703" xlink:href="#DejaVuSans-103"/>
       <use x="180.697266" xlink:href="#DejaVuSans-97"/>
       <use x="241.976562" xlink:href="#DejaVuSans-108"/>
      </g>
     </g>
    </g>
    <g id="xtick_10">
     <g id="line2d_10">
      <g>
       <use style="stroke:#000000;stroke-width:0.8;" x="269.15" xlink:href="#m609706a617" y="480.6"/>
      </g>
     </g>
     <g id="text_10">
      <!-- Deal -->
      <defs>
       <path d="M 19.671875 64.796875 
L 19.671875 8.109375 
L 31.59375 8.109375 
Q 46.6875 8.109375 53.6875 14.9375 
Q 60.6875 21.78125 60.6875 36.53125 
Q 60.6875 51.171875 53.6875 57.984375 
Q 46.6875 64.796875 31.59375 64.796875 
z
M 9.8125 72.90625 
L 30.078125 72.90625 
Q 51.265625 72.90625 61.171875 64.09375 
Q 71.09375 55.28125 71.09375 36.53125 
Q 71.09375 17.671875 61.125 8.828125 
Q 51.171875 0 30.078125 0 
L 9.8125 0 
z
" id="DejaVuSans-68"/>
      </defs>
      <g transform="translate(268.870072 511.550488)rotate(-75)scale(0.1 -0.1)">
       <use xlink:href="#DejaVuSans-68"/>
       <use x="77.001953" xlink:href="#DejaVuSans-101"/>
       <use x="138.525391" xlink:href="#DejaVuSans-97"/>
       <use x="199.804688" xlink:href="#DejaVuSans-108"/>
      </g>
     </g>
    </g>
    <g id="xtick_11">
     <g id="line2d_11">
      <g>
       <use style="stroke:#000000;stroke-width:0.8;" x="290.85" xlink:href="#m609706a617" y="480.6"/>
      </g>
     </g>
     <g id="text_11">
      <!-- SalesVolume -->
      <g transform="translate(285.158732 551.941281)rotate(-75)scale(0.1 -0.1)">
       <use xlink:href="#DejaVuSans-83"/>
       <use x="63.476562" xlink:href="#DejaVuSans-97"/>
       <use x="124.755859" xlink:href="#DejaVuSans-108"/>
       <use x="152.539062" xlink:href="#DejaVuSans-101"/>
       <use x="214.0625" xlink:href="#DejaVuSans-115"/>
       <use x="266.162109" xlink:href="#DejaVuSans-86"/>
       <use x="334.460938" xlink:href="#DejaVuSans-111"/>
       <use x="395.642578" xlink:href="#DejaVuSans-108"/>
       <use x="423.425781" xlink:href="#DejaVuSans-117"/>
       <use x="486.804688" xlink:href="#DejaVuSans-109"/>
       <use x="584.216797" xlink:href="#DejaVuSans-101"/>
      </g>
     </g>
    </g>
    <g id="xtick_12">
     <g id="line2d_12">
      <g>
       <use style="stroke:#000000;stroke-width:0.8;" x="312.55" xlink:href="#m609706a617" y="480.6"/>
      </g>
     </g>
     <g id="text_12">
      <!-- Rating -->
      <g transform="translate(311.015002 520.91846)rotate(-75)scale(0.1 -0.1)">
       <use xlink:href="#DejaVuSans-82"/>
       <use x="69.451172" xlink:href="#DejaVuSans-97"/>
       <use x="130.730469" xlink:href="#DejaVuSans-116"/>
       <use x="169.939453" xlink:href="#DejaVuSans-105"/>
       <use x="197.722656" xlink:href="#DejaVuSans-110"/>
       <use x="261.101562" xlink:href="#DejaVuSans-103"/>
      </g>
     </g>
    </g>
    <g id="xtick_13">
     <g id="line2d_13">
      <g>
       <use style="stroke:#000000;stroke-width:0.8;" x="334.25" xlink:href="#m609706a617" y="480.6"/>
      </g>
     </g>
     <g id="text_13">
      <!-- Profit/Loss -->
      <defs>
       <path d="M 37.109375 75.984375 
L 37.109375 68.5 
L 28.515625 68.5 
Q 23.6875 68.5 21.796875 66.546875 
Q 19.921875 64.59375 19.921875 59.515625 
L 19.921875 54.6875 
L 34.71875 54.6875 
L 34.71875 47.703125 
L 19.921875 47.703125 
L 19.921875 0 
L 10.890625 0 
L 10.890625 47.703125 
L 2.296875 47.703125 
L 2.296875 54.6875 
L 10.890625 54.6875 
L 10.890625 58.5 
Q 10.890625 67.625 15.140625 71.796875 
Q 19.390625 75.984375 28.609375 75.984375 
z
" id="DejaVuSans-102"/>
      </defs>
      <g transform="translate(330.192527 539.746467)rotate(-75)scale(0.1 -0.1)">
       <use xlink:href="#DejaVuSans-80"/>
       <use x="60.287109" xlink:href="#DejaVuSans-114"/>
       <use x="101.369141" xlink:href="#DejaVuSans-111"/>
       <use x="162.550781" xlink:href="#DejaVuSans-102"/>
       <use x="197.755859" xlink:href="#DejaVuSans-105"/>
       <use x="225.539062" xlink:href="#DejaVuSans-116"/>
       <use x="264.748047" xlink:href="#DejaVuSans-47"/>
       <use x="298.439453" xlink:href="#DejaVuSans-76"/>
       <use x="354.136719" xlink:href="#DejaVuSans-111"/>
       <use x="415.318359" xlink:href="#DejaVuSans-115"/>
       <use x="467.417969" xlink:href="#DejaVuSans-115"/>
      </g>
     </g>
    </g>
    <g id="xtick_14">
     <g id="line2d_14">
      <g>
       <use style="stroke:#000000;stroke-width:0.8;" x="355.95" xlink:href="#m609706a617" y="480.6"/>
      </g>
     </g>
     <g id="text_14">
      <!-- Expense -->
      <defs>
       <path d="M 54.890625 54.6875 
L 35.109375 28.078125 
L 55.90625 0 
L 45.3125 0 
L 29.390625 21.484375 
L 13.484375 0 
L 2.875 0 
L 24.125 28.609375 
L 4.6875 54.6875 
L 15.28125 54.6875 
L 29.78125 35.203125 
L 44.28125 54.6875 
z
" id="DejaVuSans-120"/>
      </defs>
      <g transform="translate(353.123333 530.559607)rotate(-75)scale(0.1 -0.1)">
       <use xlink:href="#DejaVuSans-69"/>
       <use x="63.183594" xlink:href="#DejaVuSans-120"/>
       <use x="122.363281" xlink:href="#DejaVuSans-112"/>
       <use x="185.839844" xlink:href="#DejaVuSans-101"/>
       <use x="247.363281" xlink:href="#DejaVuSans-110"/>
       <use x="310.742188" xlink:href="#DejaVuSans-115"/>
       <use x="362.841797" xlink:href="#DejaVuSans-101"/>
      </g>
     </g>
    </g>
    <g id="xtick_15">
     <g id="line2d_15">
      <g>
       <use style="stroke:#000000;stroke-width:0.8;" x="377.65" xlink:href="#m609706a617" y="480.6"/>
      </g>
     </g>
     <g id="text_15">
      <!-- Revenue -->
      <g transform="translate(374.621939 532.062829)rotate(-75)scale(0.1 -0.1)">
       <use xlink:href="#DejaVuSans-82"/>
       <use x="69.419922" xlink:href="#DejaVuSans-101"/>
       <use x="130.943359" xlink:href="#DejaVuSans-118"/>
       <use x="190.123047" xlink:href="#DejaVuSans-101"/>
       <use x="251.646484" xlink:href="#DejaVuSans-110"/>
       <use x="315.025391" xlink:href="#DejaVuSans-117"/>
       <use x="378.404297" xlink:href="#DejaVuSans-101"/>
      </g>
     </g>
    </g>
    <g id="xtick_16">
     <g id="line2d_16">
      <g>
       <use style="stroke:#000000;stroke-width:0.8;" x="399.35" xlink:href="#m609706a617" y="480.6"/>
      </g>
     </g>
     <g id="text_16">
      <!-- Dividend -->
      <g transform="translate(396.274422 532.417505)rotate(-75)scale(0.1 -0.1)">
       <use xlink:href="#DejaVuSans-68"/>
       <use x="77.001953" xlink:href="#DejaVuSans-105"/>
       <use x="104.785156" xlink:href="#DejaVuSans-118"/>
       <use x="163.964844" xlink:href="#DejaVuSans-105"/>
       <use x="191.748047" xlink:href="#DejaVuSans-100"/>
       <use x="255.224609" xlink:href="#DejaVuSans-101"/>
       <use x="316.748047" xlink:href="#DejaVuSans-110"/>
       <use x="380.126953" xlink:href="#DejaVuSans-100"/>
      </g>
     </g>
    </g>
    <g id="xtick_17">
     <g id="line2d_17">
      <g>
       <use style="stroke:#000000;stroke-width:0.8;" x="421.05" xlink:href="#m609706a617" y="480.6"/>
      </g>
     </g>
     <g id="text_17">
      <!-- Investment -->
      <defs>
       <path d="M 9.8125 72.90625 
L 19.671875 72.90625 
L 19.671875 0 
L 9.8125 0 
z
" id="DejaVuSans-73"/>
      </defs>
      <g transform="translate(416.385515 544.277263)rotate(-75)scale(0.1 -0.1)">
       <use xlink:href="#DejaVuSans-73"/>
       <use x="29.492188" xlink:href="#DejaVuSans-110"/>
       <use x="92.871094" xlink:href="#DejaVuSans-118"/>
       <use x="152.050781" xlink:href="#DejaVuSans-101"/>
       <use x="213.574219" xlink:href="#DejaVuSans-115"/>
       <use x="265.673828" xlink:href="#DejaVuSans-116"/>
       <use x="304.882812" xlink:href="#DejaVuSans-109"/>
       <use x="402.294922" xlink:href="#DejaVuSans-101"/>
       <use x="463.818359" xlink:href="#DejaVuSans-110"/>
       <use x="527.197266" xlink:href="#DejaVuSans-116"/>
      </g>
     </g>
    </g>
    <g id="xtick_18">
     <g id="line2d_18">
      <g>
       <use style="stroke:#000000;stroke-width:0.8;" x="442.75" xlink:href="#m609706a617" y="480.6"/>
      </g>
     </g>
     <g id="text_18">
      <!-- Merger/Acquisition -->
      <defs>
       <path d="M 34.1875 63.1875 
L 20.796875 26.90625 
L 47.609375 26.90625 
z
M 28.609375 72.90625 
L 39.796875 72.90625 
L 67.578125 0 
L 57.328125 0 
L 50.6875 18.703125 
L 17.828125 18.703125 
L 11.1875 0 
L 0.78125 0 
z
" id="DejaVuSans-65"/>
       <path d="M 14.796875 27.296875 
Q 14.796875 17.390625 18.875 11.75 
Q 22.953125 6.109375 30.078125 6.109375 
Q 37.203125 6.109375 41.296875 11.75 
Q 45.40625 17.390625 45.40625 27.296875 
Q 45.40625 37.203125 41.296875 42.84375 
Q 37.203125 48.484375 30.078125 48.484375 
Q 22.953125 48.484375 18.875 42.84375 
Q 14.796875 37.203125 14.796875 27.296875 
z
M 45.40625 8.203125 
Q 42.578125 3.328125 38.25 0.953125 
Q 33.9375 -1.421875 27.875 -1.421875 
Q 17.96875 -1.421875 11.734375 6.484375 
Q 5.515625 14.40625 5.515625 27.296875 
Q 5.515625 40.1875 11.734375 48.09375 
Q 17.96875 56 27.875 56 
Q 33.9375 56 38.25 53.625 
Q 42.578125 51.265625 45.40625 46.390625 
L 45.40625 54.6875 
L 54.390625 54.6875 
L 54.390625 -20.796875 
L 45.40625 -20.796875 
z
" id="DejaVuSans-113"/>
      </defs>
      <g transform="translate(433.274716 580.185555)rotate(-75)scale(0.1 -0.1)">
       <use xlink:href="#DejaVuSans-77"/>
       <use x="86.279297" xlink:href="#DejaVuSans-101"/>
       <use x="147.802734" xlink:href="#DejaVuSans-114"/>
       <use x="188.900391" xlink:href="#DejaVuSans-103"/>
       <use x="252.376953" xlink:href="#DejaVuSans-101"/>
       <use x="313.900391" xlink:href="#DejaVuSans-114"/>
       <use x="355.013672" xlink:href="#DejaVuSans-47"/>
       <use x="388.705078" xlink:href="#DejaVuSans-65"/>
       <use x="457.097656" xlink:href="#DejaVuSans-99"/>
       <use x="512.078125" xlink:href="#DejaVuSans-113"/>
       <use x="575.554688" xlink:href="#DejaVuSans-117"/>
       <use x="638.933594" xlink:href="#DejaVuSans-105"/>
       <use x="666.716797" xlink:href="#DejaVuSans-115"/>
       <use x="718.816406" xlink:href="#DejaVuSans-105"/>
       <use x="746.599609" xlink:href="#DejaVuSans-116"/>
       <use x="785.808594" xlink:href="#DejaVuSans-105"/>
       <use x="813.591797" xlink:href="#DejaVuSans-111"/>
       <use x="874.773438" xlink:href="#DejaVuSans-110"/>
      </g>
     </g>
    </g>
    <g id="text_19">
     <!-- annotation_type -->
     <defs>
      <path d="M 50.984375 -16.609375 
L 50.984375 -23.578125 
L -0.984375 -23.578125 
L -0.984375 -16.609375 
z
" id="DejaVuSans-95"/>
     </defs>
     <g transform="translate(217.567188 592.322256)scale(0.1 -0.1)">
      <use xlink:href="#DejaVuSans-97"/>
      <use x="61.279297" xlink:href="#DejaVuSans-110"/>
      <use x="124.658203" xlink:href="#DejaVuSans-110"/>
      <use x="188.037109" xlink:href="#DejaVuSans-111"/>
      <use x="249.21875" xlink:href="#DejaVuSans-116"/>
      <use x="288.427734" xlink:href="#DejaVuSans-97"/>
      <use x="349.707031" xlink:href="#DejaVuSans-116"/>
      <use x="388.916016" xlink:href="#DejaVuSans-105"/>
      <use x="416.699219" xlink:href="#DejaVuSans-111"/>
      <use x="477.880859" xlink:href="#DejaVuSans-110"/>
      <use x="541.259766" xlink:href="#DejaVuSans-95"/>
      <use x="591.259766" xlink:href="#DejaVuSans-116"/>
      <use x="630.46875" xlink:href="#DejaVuSans-121"/>
      <use x="689.648438" xlink:href="#DejaVuSans-112"/>
      <use x="753.125" xlink:href="#DejaVuSans-101"/>
     </g>
    </g>
   </g>
   <g id="matplotlib.axis_2">
    <g id="ytick_1">
     <g id="line2d_19">
      <defs>
       <path d="M 0 0 
L -3.5 0 
" id="m92dd3b13a8" style="stroke:#000000;stroke-width:0.8;"/>
      </defs>
      <g>
       <use style="stroke:#000000;stroke-width:0.8;" x="63" xlink:href="#m92dd3b13a8" y="480.6"/>
      </g>
     </g>
     <g id="text_20">
      <!-- 0 -->
      <defs>
       <path d="M 31.78125 66.40625 
Q 24.171875 66.40625 20.328125 58.90625 
Q 16.5 51.421875 16.5 36.375 
Q 16.5 21.390625 20.328125 13.890625 
Q 24.171875 6.390625 31.78125 6.390625 
Q 39.453125 6.390625 43.28125 13.890625 
Q 47.125 21.390625 47.125 36.375 
Q 47.125 51.421875 43.28125 58.90625 
Q 39.453125 66.40625 31.78125 66.40625 
z
M 31.78125 74.21875 
Q 44.046875 74.21875 50.515625 64.515625 
Q 56.984375 54.828125 56.984375 36.375 
Q 56.984375 17.96875 50.515625 8.265625 
Q 44.046875 -1.421875 31.78125 -1.421875 
Q 19.53125 -1.421875 13.0625 8.265625 
Q 6.59375 17.96875 6.59375 36.375 
Q 6.59375 54.828125 13.0625 64.515625 
Q 19.53125 74.21875 31.78125 74.21875 
z
" id="DejaVuSans-48"/>
      </defs>
      <g transform="translate(49.6375 484.399219)scale(0.1 -0.1)">
       <use xlink:href="#DejaVuSans-48"/>
      </g>
     </g>
    </g>
    <g id="ytick_2">
     <g id="line2d_20">
      <g>
       <use style="stroke:#000000;stroke-width:0.8;" x="63" xlink:href="#m92dd3b13a8" y="418.038025"/>
      </g>
     </g>
     <g id="text_21">
      <!-- 20 -->
      <defs>
       <path d="M 19.1875 8.296875 
L 53.609375 8.296875 
L 53.609375 0 
L 7.328125 0 
L 7.328125 8.296875 
Q 12.9375 14.109375 22.625 23.890625 
Q 32.328125 33.6875 34.8125 36.53125 
Q 39.546875 41.84375 41.421875 45.53125 
Q 43.3125 49.21875 43.3125 52.78125 
Q 43.3125 58.59375 39.234375 62.25 
Q 35.15625 65.921875 28.609375 65.921875 
Q 23.96875 65.921875 18.8125 64.3125 
Q 13.671875 62.703125 7.8125 59.421875 
L 7.8125 69.390625 
Q 13.765625 71.78125 18.9375 73 
Q 24.125 74.21875 28.421875 74.21875 
Q 39.75 74.21875 46.484375 68.546875 
Q 53.21875 62.890625 53.21875 53.421875 
Q 53.21875 48.921875 51.53125 44.890625 
Q 49.859375 40.875 45.40625 35.40625 
Q 44.1875 33.984375 37.640625 27.21875 
Q 31.109375 20.453125 19.1875 8.296875 
z
" id="DejaVuSans-50"/>
      </defs>
      <g transform="translate(43.275 421.837244)scale(0.1 -0.1)">
       <use xlink:href="#DejaVuSans-50"/>
       <use x="63.623047" xlink:href="#DejaVuSans-48"/>
      </g>
     </g>
    </g>
    <g id="ytick_3">
     <g id="line2d_21">
      <g>
       <use style="stroke:#000000;stroke-width:0.8;" x="63" xlink:href="#m92dd3b13a8" y="355.476051"/>
      </g>
     </g>
     <g id="text_22">
      <!-- 40 -->
      <defs>
       <path d="M 37.796875 64.3125 
L 12.890625 25.390625 
L 37.796875 25.390625 
z
M 35.203125 72.90625 
L 47.609375 72.90625 
L 47.609375 25.390625 
L 58.015625 25.390625 
L 58.015625 17.1875 
L 47.609375 17.1875 
L 47.609375 0 
L 37.796875 0 
L 37.796875 17.1875 
L 4.890625 17.1875 
L 4.890625 26.703125 
z
" id="DejaVuSans-52"/>
      </defs>
      <g transform="translate(43.275 359.27527)scale(0.1 -0.1)">
       <use xlink:href="#DejaVuSans-52"/>
       <use x="63.623047" xlink:href="#DejaVuSans-48"/>
      </g>
     </g>
    </g>
    <g id="ytick_4">
     <g id="line2d_22">
      <g>
       <use style="stroke:#000000;stroke-width:0.8;" x="63" xlink:href="#m92dd3b13a8" y="292.914076"/>
      </g>
     </g>
     <g id="text_23">
      <!-- 60 -->
      <defs>
       <path d="M 33.015625 40.375 
Q 26.375 40.375 22.484375 35.828125 
Q 18.609375 31.296875 18.609375 23.390625 
Q 18.609375 15.53125 22.484375 10.953125 
Q 26.375 6.390625 33.015625 6.390625 
Q 39.65625 6.390625 43.53125 10.953125 
Q 47.40625 15.53125 47.40625 23.390625 
Q 47.40625 31.296875 43.53125 35.828125 
Q 39.65625 40.375 33.015625 40.375 
z
M 52.59375 71.296875 
L 52.59375 62.3125 
Q 48.875 64.0625 45.09375 64.984375 
Q 41.3125 65.921875 37.59375 65.921875 
Q 27.828125 65.921875 22.671875 59.328125 
Q 17.53125 52.734375 16.796875 39.40625 
Q 19.671875 43.65625 24.015625 45.921875 
Q 28.375 48.1875 33.59375 48.1875 
Q 44.578125 48.1875 50.953125 41.515625 
Q 57.328125 34.859375 57.328125 23.390625 
Q 57.328125 12.15625 50.6875 5.359375 
Q 44.046875 -1.421875 33.015625 -1.421875 
Q 20.359375 -1.421875 13.671875 8.265625 
Q 6.984375 17.96875 6.984375 36.375 
Q 6.984375 53.65625 15.1875 63.9375 
Q 23.390625 74.21875 37.203125 74.21875 
Q 40.921875 74.21875 44.703125 73.484375 
Q 48.484375 72.75 52.59375 71.296875 
z
" id="DejaVuSans-54"/>
      </defs>
      <g transform="translate(43.275 296.713295)scale(0.1 -0.1)">
       <use xlink:href="#DejaVuSans-54"/>
       <use x="63.623047" xlink:href="#DejaVuSans-48"/>
      </g>
     </g>
    </g>
    <g id="ytick_5">
     <g id="line2d_23">
      <g>
       <use style="stroke:#000000;stroke-width:0.8;" x="63" xlink:href="#m92dd3b13a8" y="230.352102"/>
      </g>
     </g>
     <g id="text_24">
      <!-- 80 -->
      <defs>
       <path d="M 31.78125 34.625 
Q 24.75 34.625 20.71875 30.859375 
Q 16.703125 27.09375 16.703125 20.515625 
Q 16.703125 13.921875 20.71875 10.15625 
Q 24.75 6.390625 31.78125 6.390625 
Q 38.8125 6.390625 42.859375 10.171875 
Q 46.921875 13.96875 46.921875 20.515625 
Q 46.921875 27.09375 42.890625 30.859375 
Q 38.875 34.625 31.78125 34.625 
z
M 21.921875 38.8125 
Q 15.578125 40.375 12.03125 44.71875 
Q 8.5 49.078125 8.5 55.328125 
Q 8.5 64.0625 14.71875 69.140625 
Q 20.953125 74.21875 31.78125 74.21875 
Q 42.671875 74.21875 48.875 69.140625 
Q 55.078125 64.0625 55.078125 55.328125 
Q 55.078125 49.078125 51.53125 44.71875 
Q 48 40.375 41.703125 38.8125 
Q 48.828125 37.15625 52.796875 32.3125 
Q 56.78125 27.484375 56.78125 20.515625 
Q 56.78125 9.90625 50.3125 4.234375 
Q 43.84375 -1.421875 31.78125 -1.421875 
Q 19.734375 -1.421875 13.25 4.234375 
Q 6.78125 9.90625 6.78125 20.515625 
Q 6.78125 27.484375 10.78125 32.3125 
Q 14.796875 37.15625 21.921875 38.8125 
z
M 18.3125 54.390625 
Q 18.3125 48.734375 21.84375 45.5625 
Q 25.390625 42.390625 31.78125 42.390625 
Q 38.140625 42.390625 41.71875 45.5625 
Q 45.3125 48.734375 45.3125 54.390625 
Q 45.3125 60.0625 41.71875 63.234375 
Q 38.140625 66.40625 31.78125 66.40625 
Q 25.390625 66.40625 21.84375 63.234375 
Q 18.3125 60.0625 18.3125 54.390625 
z
" id="DejaVuSans-56"/>
      </defs>
      <g transform="translate(43.275 234.15132)scale(0.1 -0.1)">
       <use xlink:href="#DejaVuSans-56"/>
       <use x="63.623047" xlink:href="#DejaVuSans-48"/>
      </g>
     </g>
    </g>
    <g id="ytick_6">
     <g id="line2d_24">
      <g>
       <use style="stroke:#000000;stroke-width:0.8;" x="63" xlink:href="#m92dd3b13a8" y="167.790127"/>
      </g>
     </g>
     <g id="text_25">
      <!-- 100 -->
      <defs>
       <path d="M 12.40625 8.296875 
L 28.515625 8.296875 
L 28.515625 63.921875 
L 10.984375 60.40625 
L 10.984375 69.390625 
L 28.421875 72.90625 
L 38.28125 72.90625 
L 38.28125 8.296875 
L 54.390625 8.296875 
L 54.390625 0 
L 12.40625 0 
z
" id="DejaVuSans-49"/>
      </defs>
      <g transform="translate(36.9125 171.589346)scale(0.1 -0.1)">
       <use xlink:href="#DejaVuSans-49"/>
       <use x="63.623047" xlink:href="#DejaVuSans-48"/>
       <use x="127.246094" xlink:href="#DejaVuSans-48"/>
      </g>
     </g>
    </g>
    <g id="ytick_7">
     <g id="line2d_25">
      <g>
       <use style="stroke:#000000;stroke-width:0.8;" x="63" xlink:href="#m92dd3b13a8" y="105.228153"/>
      </g>
     </g>
     <g id="text_26">
      <!-- 120 -->
      <g transform="translate(36.9125 109.027371)scale(0.1 -0.1)">
       <use xlink:href="#DejaVuSans-49"/>
       <use x="63.623047" xlink:href="#DejaVuSans-50"/>
       <use x="127.246094" xlink:href="#DejaVuSans-48"/>
      </g>
     </g>
    </g>
   </g>
   <g id="patch_111">
    <path d="M 63 480.6 
L 63 64.8 
" style="fill:none;stroke:#000000;stroke-linecap:square;stroke-linejoin:miter;stroke-width:0.8;"/>
   </g>
   <g id="patch_112">
    <path d="M 453.6 480.6 
L 453.6 64.8 
" style="fill:none;stroke:#000000;stroke-linecap:square;stroke-linejoin:miter;stroke-width:0.8;"/>
   </g>
   <g id="patch_113">
    <path d="M 63 480.6 
L 453.6 480.6 
" style="fill:none;stroke:#000000;stroke-linecap:square;stroke-linejoin:miter;stroke-width:0.8;"/>
   </g>
   <g id="patch_114">
    <path d="M 63 64.8 
L 453.6 64.8 
" style="fill:none;stroke:#000000;stroke-linecap:square;stroke-linejoin:miter;stroke-width:0.8;"/>
   </g>
   <g id="legend_1">
    <g id="patch_115">
     <path d="M 70 160.86875 
L 243.779687 160.86875 
Q 245.779687 160.86875 245.779687 158.86875 
L 245.779687 71.8 
Q 245.779687 69.8 243.779687 69.8 
L 70 69.8 
Q 68 69.8 68 71.8 
L 68 158.86875 
Q 68 160.86875 70 160.86875 
z
" style="fill:#ffffff;opacity:0.8;stroke:#cccccc;stroke-linejoin:miter;"/>
    </g>
    <g id="patch_116">
     <path d="M 72 81.398438 
L 92 81.398438 
L 92 74.398438 
L 72 74.398438 
z
" style="fill:#1f77b4;"/>
    </g>
    <g id="text_27">
     <!-- Maas (trigger) -->
     <defs>
      <path id="DejaVuSans-32"/>
      <path d="M 31 75.875 
Q 24.46875 64.65625 21.28125 53.65625 
Q 18.109375 42.671875 18.109375 31.390625 
Q 18.109375 20.125 21.3125 9.0625 
Q 24.515625 -2 31 -13.1875 
L 23.1875 -13.1875 
Q 15.875 -1.703125 12.234375 9.375 
Q 8.59375 20.453125 8.59375 31.390625 
Q 8.59375 42.28125 12.203125 53.3125 
Q 15.828125 64.359375 23.1875 75.875 
z
" id="DejaVuSans-40"/>
      <path d="M 8.015625 75.875 
L 15.828125 75.875 
Q 23.140625 64.359375 26.78125 53.3125 
Q 30.421875 42.28125 30.421875 31.390625 
Q 30.421875 20.453125 26.78125 9.375 
Q 23.140625 -1.703125 15.828125 -13.1875 
L 8.015625 -13.1875 
Q 14.5 -2 17.703125 9.0625 
Q 20.90625 20.125 20.90625 31.390625 
Q 20.90625 42.671875 17.703125 53.65625 
Q 14.5 64.65625 8.015625 75.875 
z
" id="DejaVuSans-41"/>
     </defs>
     <g transform="translate(100 81.398438)scale(0.1 -0.1)">
      <use xlink:href="#DejaVuSans-77"/>
      <use x="86.279297" xlink:href="#DejaVuSans-97"/>
      <use x="147.558594" xlink:href="#DejaVuSans-97"/>
      <use x="208.837891" xlink:href="#DejaVuSans-115"/>
      <use x="260.9375" xlink:href="#DejaVuSans-32"/>
      <use x="292.724609" xlink:href="#DejaVuSans-40"/>
      <use x="331.738281" xlink:href="#DejaVuSans-116"/>
      <use x="370.947266" xlink:href="#DejaVuSans-114"/>
      <use x="412.060547" xlink:href="#DejaVuSans-105"/>
      <use x="439.84375" xlink:href="#DejaVuSans-103"/>
      <use x="503.320312" xlink:href="#DejaVuSans-103"/>
      <use x="566.796875" xlink:href="#DejaVuSans-101"/>
      <use x="628.320312" xlink:href="#DejaVuSans-114"/>
      <use x="669.433594" xlink:href="#DejaVuSans-41"/>
     </g>
    </g>
    <g id="patch_117">
     <path d="M 72 96.076563 
L 92 96.076563 
L 92 89.076563 
L 72 89.076563 
z
" style="fill:#ff7f0e;"/>
    </g>
    <g id="text_28">
     <!-- HDD (trigger) -->
     <defs>
      <path d="M 9.8125 72.90625 
L 19.671875 72.90625 
L 19.671875 43.015625 
L 55.515625 43.015625 
L 55.515625 72.90625 
L 65.375 72.90625 
L 65.375 0 
L 55.515625 0 
L 55.515625 34.71875 
L 19.671875 34.71875 
L 19.671875 0 
L 9.8125 0 
z
" id="DejaVuSans-72"/>
     </defs>
     <g transform="translate(100 96.076563)scale(0.1 -0.1)">
      <use xlink:href="#DejaVuSans-72"/>
      <use x="75.195312" xlink:href="#DejaVuSans-68"/>
      <use x="152.197266" xlink:href="#DejaVuSans-68"/>
      <use x="229.199219" xlink:href="#DejaVuSans-32"/>
      <use x="260.986328" xlink:href="#DejaVuSans-40"/>
      <use x="300" xlink:href="#DejaVuSans-116"/>
      <use x="339.208984" xlink:href="#DejaVuSans-114"/>
      <use x="380.322266" xlink:href="#DejaVuSans-105"/>
      <use x="408.105469" xlink:href="#DejaVuSans-103"/>
      <use x="471.582031" xlink:href="#DejaVuSans-103"/>
      <use x="535.058594" xlink:href="#DejaVuSans-101"/>
      <use x="596.582031" xlink:href="#DejaVuSans-114"/>
      <use x="637.695312" xlink:href="#DejaVuSans-41"/>
     </g>
    </g>
    <g id="patch_118">
     <path d="M 72 110.754687 
L 92 110.754687 
L 92 103.754687 
L 72 103.754687 
z
" style="fill:#2ca02c;"/>
    </g>
    <g id="text_29">
     <!-- MTLD (trigger) -->
     <defs>
      <path d="M -0.296875 72.90625 
L 61.375 72.90625 
L 61.375 64.59375 
L 35.5 64.59375 
L 35.5 0 
L 25.59375 0 
L 25.59375 64.59375 
L -0.296875 64.59375 
z
" id="DejaVuSans-84"/>
     </defs>
     <g transform="translate(100 110.754687)scale(0.1 -0.1)">
      <use xlink:href="#DejaVuSans-77"/>
      <use x="86.279297" xlink:href="#DejaVuSans-84"/>
      <use x="147.363281" xlink:href="#DejaVuSans-76"/>
      <use x="203.076172" xlink:href="#DejaVuSans-68"/>
      <use x="280.078125" xlink:href="#DejaVuSans-32"/>
      <use x="311.865234" xlink:href="#DejaVuSans-40"/>
      <use x="350.878906" xlink:href="#DejaVuSans-116"/>
      <use x="390.087891" xlink:href="#DejaVuSans-114"/>
      <use x="431.201172" xlink:href="#DejaVuSans-105"/>
      <use x="458.984375" xlink:href="#DejaVuSans-103"/>
      <use x="522.460938" xlink:href="#DejaVuSans-103"/>
      <use x="585.9375" xlink:href="#DejaVuSans-101"/>
      <use x="647.460938" xlink:href="#DejaVuSans-114"/>
      <use x="688.574219" xlink:href="#DejaVuSans-41"/>
     </g>
    </g>
    <g id="patch_119">
     <path d="M 72 125.432813 
L 92 125.432813 
L 92 118.432813 
L 72 118.432813 
z
" style="fill:#d62728;"/>
    </g>
    <g id="text_30">
     <!-- Maas (trigger + arguments) -->
     <defs>
      <path d="M 46 62.703125 
L 46 35.5 
L 73.1875 35.5 
L 73.1875 27.203125 
L 46 27.203125 
L 46 0 
L 37.796875 0 
L 37.796875 27.203125 
L 10.59375 27.203125 
L 10.59375 35.5 
L 37.796875 35.5 
L 37.796875 62.703125 
z
" id="DejaVuSans-43"/>
     </defs>
     <g transform="translate(100 125.432813)scale(0.1 -0.1)">
      <use xlink:href="#DejaVuSans-77"/>
      <use x="86.279297" xlink:href="#DejaVuSans-97"/>
      <use x="147.558594" xlink:href="#DejaVuSans-97"/>
      <use x="208.837891" xlink:href="#DejaVuSans-115"/>
      <use x="260.9375" xlink:href="#DejaVuSans-32"/>
      <use x="292.724609" xlink:href="#DejaVuSans-40"/>
      <use x="331.738281" xlink:href="#DejaVuSans-116"/>
      <use x="370.947266" xlink:href="#DejaVuSans-114"/>
      <use x="412.060547" xlink:href="#DejaVuSans-105"/>
      <use x="439.84375" xlink:href="#DejaVuSans-103"/>
      <use x="503.320312" xlink:href="#DejaVuSans-103"/>
      <use x="566.796875" xlink:href="#DejaVuSans-101"/>
      <use x="628.320312" xlink:href="#DejaVuSans-114"/>
      <use x="669.433594" xlink:href="#DejaVuSans-32"/>
      <use x="701.220703" xlink:href="#DejaVuSans-43"/>
      <use x="785.009766" xlink:href="#DejaVuSans-32"/>
      <use x="816.796875" xlink:href="#DejaVuSans-97"/>
      <use x="878.076172" xlink:href="#DejaVuSans-114"/>
      <use x="919.173828" xlink:href="#DejaVuSans-103"/>
      <use x="982.650391" xlink:href="#DejaVuSans-117"/>
      <use x="1046.029297" xlink:href="#DejaVuSans-109"/>
      <use x="1143.441406" xlink:href="#DejaVuSans-101"/>
      <use x="1204.964844" xlink:href="#DejaVuSans-110"/>
      <use x="1268.34375" xlink:href="#DejaVuSans-116"/>
      <use x="1307.552734" xlink:href="#DejaVuSans-115"/>
      <use x="1359.652344" xlink:href="#DejaVuSans-41"/>
     </g>
    </g>
    <g id="patch_120">
     <path d="M 72 140.110937 
L 92 140.110937 
L 92 133.110937 
L 72 133.110937 
z
" style="fill:#9467bd;"/>
    </g>
    <g id="text_31">
     <!-- HDD (trigger + arguments) -->
     <g transform="translate(100 140.110937)scale(0.1 -0.1)">
      <use xlink:href="#DejaVuSans-72"/>
      <use x="75.195312" xlink:href="#DejaVuSans-68"/>
      <use x="152.197266" xlink:href="#DejaVuSans-68"/>
      <use x="229.199219" xlink:href="#DejaVuSans-32"/>
      <use x="260.986328" xlink:href="#DejaVuSans-40"/>
      <use x="300" xlink:href="#DejaVuSans-116"/>
      <use x="339.208984" xlink:href="#DejaVuSans-114"/>
      <use x="380.322266" xlink:href="#DejaVuSans-105"/>
      <use x="408.105469" xlink:href="#DejaVuSans-103"/>
      <use x="471.582031" xlink:href="#DejaVuSans-103"/>
      <use x="535.058594" xlink:href="#DejaVuSans-101"/>
      <use x="596.582031" xlink:href="#DejaVuSans-114"/>
      <use x="637.695312" xlink:href="#DejaVuSans-32"/>
      <use x="669.482422" xlink:href="#DejaVuSans-43"/>
      <use x="753.271484" xlink:href="#DejaVuSans-32"/>
      <use x="785.058594" xlink:href="#DejaVuSans-97"/>
      <use x="846.337891" xlink:href="#DejaVuSans-114"/>
      <use x="887.435547" xlink:href="#DejaVuSans-103"/>
      <use x="950.912109" xlink:href="#DejaVuSans-117"/>
      <use x="1014.291016" xlink:href="#DejaVuSans-109"/>
      <use x="1111.703125" xlink:href="#DejaVuSans-101"/>
      <use x="1173.226562" xlink:href="#DejaVuSans-110"/>
      <use x="1236.605469" xlink:href="#DejaVuSans-116"/>
      <use x="1275.814453" xlink:href="#DejaVuSans-115"/>
      <use x="1327.914062" xlink:href="#DejaVuSans-41"/>
     </g>
    </g>
    <g id="patch_121">
     <path d="M 72 154.789062 
L 92 154.789062 
L 92 147.789062 
L 72 147.789062 
z
" style="fill:#8c564b;"/>
    </g>
    <g id="text_32">
     <!-- MTLD (trigger + arguments) -->
     <g transform="translate(100 154.789062)scale(0.1 -0.1)">
      <use xlink:href="#DejaVuSans-77"/>
      <use x="86.279297" xlink:href="#DejaVuSans-84"/>
      <use x="147.363281" xlink:href="#DejaVuSans-76"/>
      <use x="203.076172" xlink:href="#DejaVuSans-68"/>
      <use x="280.078125" xlink:href="#DejaVuSans-32"/>
      <use x="311.865234" xlink:href="#DejaVuSans-40"/>
      <use x="350.878906" xlink:href="#DejaVuSans-116"/>
      <use x="390.087891" xlink:href="#DejaVuSans-114"/>
      <use x="431.201172" xlink:href="#DejaVuSans-105"/>
      <use x="458.984375" xlink:href="#DejaVuSans-103"/>
      <use x="522.460938" xlink:href="#DejaVuSans-103"/>
      <use x="585.9375" xlink:href="#DejaVuSans-101"/>
      <use x="647.460938" xlink:href="#DejaVuSans-114"/>
      <use x="688.574219" xlink:href="#DejaVuSans-32"/>
      <use x="720.361328" xlink:href="#DejaVuSans-43"/>
      <use x="804.150391" xlink:href="#DejaVuSans-32"/>
      <use x="835.9375" xlink:href="#DejaVuSans-97"/>
      <use x="897.216797" xlink:href="#DejaVuSans-114"/>
      <use x="938.314453" xlink:href="#DejaVuSans-103"/>
      <use x="1001.791016" xlink:href="#DejaVuSans-117"/>
      <use x="1065.169922" xlink:href="#DejaVuSans-109"/>
      <use x="1162.582031" xlink:href="#DejaVuSans-101"/>
      <use x="1224.105469" xlink:href="#DejaVuSans-110"/>
      <use x="1287.484375" xlink:href="#DejaVuSans-116"/>
      <use x="1326.693359" xlink:href="#DejaVuSans-115"/>
      <use x="1378.792969" xlink:href="#DejaVuSans-41"/>
     </g>
    </g>
   </g>
  </g>
 </g>
 <defs>
  <clipPath id="p362145a38a">
   <rect height="415.8" width="390.6" x="63" y="64.8"/>
  </clipPath>
 </defs>
</svg>
